<?xml version="1.0" encoding="utf-8"?>
<!-- Generator: Adobe Illustrator 23.1.0, SVG Export Plug-In . SVG Version: 6.00 Build 0)  -->
<svg version="1.1" id="Logo" xmlns="http://www.w3.org/2000/svg" xmlns:xlink="http://www.w3.org/1999/xlink" x="0px" y="0px"
	 viewBox="0 0 100 96" style="enable-background:new 0 0 100 96;" xml:space="preserve">
<style type="text/css">
	.st0{fill:#007FFF;stroke:#007FFF;stroke-width:0.5;stroke-miterlimit:10;}
	.st1{fill:#007FFF;}
</style>
<path id="bottom-arch" class="st0" d="M16.8,68.8c0,0.1,2.4-3.4,2.4-3.4l-11.1-19c-0.8-1.3-0.8-3.8,0-5.1L26.5,9.8
	c0.8-1.3,2.9-2.6,4.5-2.6h36.6c1.6,0,3.7,1.2,4.5,2.6L82,27l2.4-3.2L75.3,7.9c-1.4-2.5-4.8-4.4-7.7-4.4H30.9c-2.9,0-6.2,1.9-7.7,4.4
	L4.9,39.5c-1.4,2.5-1.4,6.4,0,8.8L16.8,68.8z"/>
<path id="top-arch" class="st0" d="M93.6,39.5L92,36.9l-2.4,3.3l0.7,1.2c0.8,1.3,0.8,3.8,0,5.1L72,78.1c-0.8,1.3-2.9,2.6-4.5,2.6
	H30.9c-1.3,0-3.1-0.9-4-2l-2.4,2.8c1.7,1.5,4.3,2.8,6.4,2.8h36.6c2.9,0,6.2-1.9,7.7-4.4l18.3-31.6C95,45.9,95,42,93.6,39.5z"/>
<g>
	<path class="st1" d="M48.7,29.1c0.6-0.3,0.9-0.4,0.9-0.4s0,0,0.1,0.1c0,0,0,0.1-0.2,0.2c-0.2,0.1-0.3,0.2-0.5,0.3
		c-0.2,0.1-0.2,0.1-0.2,0.2l0.2,0.1l-0.1,0.1l-0.1,0.1c0,0,0.1,0,0.2-0.1c0.1-0.1,0.3-0.2,0.5-0.2c0.2-0.1,0.3-0.1,0.3-0.1
		c0,0.2-0.1,0.3-0.3,0.5c-0.2,0.2-0.4,0.3-0.5,0.4c-0.2,0.1-0.4,0.2-0.7,0.4c-0.3,0.2-0.5,0.3-0.5,0.3c0,0-0.3,0.1-0.7,0.3
		s-0.7,0.4-0.9,0.6c-0.2,0.2-0.4,0.3-0.4,0.5c0,0.1-0.1,0.3,0,0.6c0,0.3,0,0.6,0.1,0.9c0.1,0.3,0.1,0.5,0.1,0.6
		c0,0.2,0.1,0.4,0.1,0.6c0,0.2,0.1,0.5,0.1,0.7s0.1,0.5,0.1,0.6c0,0.1,0,0.2,0,0.4c0,0.2,0,0.3,0.1,0.5c0,0.1,0,0.3,0,0.4
		c0,0.1,0,0.3,0,0.4c0,0.1,0,0.3-0.1,0.4c0.2,0,0.4,0.4,0.3,0.9l0,0l0,0c0,0,0,0-0.1,0.1c0,0.4,0,0.6,0,0.7c0,0,0,0.2,0,0.4
		c0,0.2,0,0.4,0,0.6c0,0.2,0,0.3,0,0.5c0,0.2,0.1,0.3,0.2,0.4c0-0.1,0-0.3,0-0.5c0,0.1,0,0.2,0.1,0.4c0,0.2,0.1,0.3,0.1,0.5
		c0,0.1,0,0.3,0.1,0.4c0,0.1,0,0.3,0,0.3c0,0.1,0,0.1,0,0.1c0-0.1-0.1-0.2-0.2-0.2c-0.1,0.1-0.1,0.2,0,0.3l0.1-0.1
		c0.1,0.4,0.1,1.4,0.3,2.9c0,0,0,0.1,0,0.3c0,0.1,0,0.2,0,0.3c0,0-0.1,0-0.1,0c0,0.1,0,0.2,0,0.2c0,0,0.1,0,0.1-0.1
		c0.1,1,0.2,1.6,0.4,1.8c0-0.1,0-0.2,0-0.4c0-0.2,0-0.4,0-0.6c0-0.2,0-0.4,0-0.6c0-0.2,0-0.3,0.1-0.3c0,0,0,0.2,0,0.7
		c0,0.5,0,1,0.1,1.5c0,0.5,0.1,0.8,0.1,0.9c0,0.1,0,0.3,0,0.6c0,0.2,0.1,0.5,0.1,0.7c0,0.2,0,0.4,0,0.7c0,0.2,0,0.4-0.1,0.6
		c0,0,0.1,0.1,0.1,0.1l0.1,0.1c0.1,0,0.1,0,0.1,0.1c0,0,0,0.1-0.1,0.2c-0.1-0.1-0.1-0.2-0.1-0.3c0,0.1-0.1,0.2-0.1,0.2
		c-0.1,0-0.1-0.4-0.1-1c0-0.6,0-1.3,0.1-1.9s0-0.9-0.1-0.9c-0.1,0-0.1,0.1-0.2,0.2c0,0.1-0.1,0.3-0.1,0.5c0,0.2,0,0.5,0,0.7
		c0,0.3,0,0.5,0,0.8c0,0.3,0,0.6,0.1,0.8c0,0.2,0.1,0.4,0.1,0.6c0,0.2,0,0.3,0,0.4c0,0.2,0,0.6,0.1,1s0,0.8,0,1
		c0.1,0.8,0,1.3-0.2,1.7c0,0.1,0,0.3,0,0.6c-0.1-0.1-0.1-0.3-0.2-0.7s-0.1-0.6-0.2-0.7c-0.2,0.2-0.2,0.7,0,1.5
		c0-0.1-0.1-0.2-0.1-0.3c0-0.1-0.1-0.1-0.1-0.1c-0.1,0.2-0.1,0.4,0,0.8c0,0.1-0.1,0.1-0.1,0.1c-0.1,0-0.1,0-0.2,0.1
		s-0.1,0.1-0.1,0.2c0,0,0,0.2,0,0.5c0,0.3,0,0.6,0,0.8s0,0.4,0,0.4c-0.1-0.1-0.2-0.2-0.3-0.4c0-0.1-0.1-0.3-0.1-0.6
		s-0.1-0.4-0.1-0.4c0-0.1-0.1-0.2-0.2-0.4c-0.1-0.1-0.2-0.2-0.3-0.4s-0.2-0.2-0.2-0.4c0-0.1-0.2-0.5-0.3-1.1
		c-0.2-0.6-0.3-0.9-0.4-0.9c0.1,0,0.1,0,0.1,0.1c0-0.2,0-0.5,0-0.7c0-0.3-0.1-0.6-0.2-1c-0.1-0.4-0.2-0.7-0.2-0.8
		c0-0.2-0.1-0.4-0.1-0.6c0-0.1,0-0.3-0.1-0.5c0-0.2-0.1-0.4-0.1-0.5c0-0.2-0.1-0.3-0.1-0.4s-0.1-0.2-0.1-0.3S44,50.2,44,50.3
		c-0.1,0,0.1,1.1,0.5,3c0.1,0.3,0.1,0.7,0.1,1.2c0,0.5,0,0.9,0,1.1c0,0,0,0.2,0.1,0.4c0.1,0.2,0.1,0.4,0.2,0.6
		c0,0.2,0.1,0.4,0.1,0.5c0,0.2,0,0.3-0.1,0.3c-0.1,0-0.1-0.2-0.2-0.4c0-0.2-0.1-0.5-0.1-0.8s-0.1-0.4-0.1-0.5L44.2,56
		c0,0,0-0.1-0.1-0.2l0-0.1c0,0,0,0.1,0,0.4c0,0.3,0.1,0.5,0.1,0.8s0.1,0.4,0,0.5c-0.2-0.1-0.3-0.3-0.4-0.6c-0.1-0.3-0.2-0.5-0.3-0.8
		s-0.1-0.5-0.2-0.9c-0.1-0.4-0.1-0.6-0.1-0.7c0-0.1-0.1-0.3-0.1-0.6c0-0.3-0.1-0.5-0.1-0.6c0,0-0.1-0.3-0.2-0.9
		c-0.1-0.6-0.2-1.1-0.3-1.6c-0.1-0.5-0.1-0.7,0-0.8c0,0,0,0,0.1,0c0,0,0,0.1,0.1,0.1c0,0,0,0.1,0,0.1c0,0,0,0.1,0,0.2
		c0,0.1,0,0.1,0,0.1c0-0.1-0.1-0.4-0.1-0.8c0-0.4-0.1-0.8-0.1-1.2c0-0.4-0.1-0.6-0.1-0.7c0-0.1-0.1-0.6-0.2-1.7
		c-0.1-1.1-0.3-2-0.4-2.8c-0.1-0.8-0.2-1.2-0.2-1.2c0.1,0,0.2,0.1,0.2,0.3c0.1,0.2,0.1,0.2,0.1,0.2c0,0,0-0.2,0.1-0.5
		c0-0.1,0-0.2,0-0.3c0-0.1,0-0.2-0.1-0.3s0-0.2-0.1-0.4c0-0.1,0-0.2,0-0.3c-0.1-0.8-0.2-1.5-0.2-2.1c-0.1-2-0.3-3.4-0.4-4.3
		c0,0-0.1,0-0.2,0.1c0-0.1,0-0.2,0-0.3c0,0,0,0,0,0c0,0-0.1,0-0.2,0.1c-0.1,0-0.1,0-0.2,0.1c-0.1,0.1-0.2,0.1-0.3,0.2
		s-0.2,0.2-0.4,0.2c-0.1,0.1-0.2,0.2-0.3,0.2c-0.2,0.1-0.5,0.3-0.9,0.5s-0.7,0.4-0.9,0.5c-3,1.6-4.5,2.4-4.5,2.3l0.3-0.3
		c-0.2-0.1-0.4,0-0.7,0.3c-0.3,0.3-0.4,0.6-0.5,0.8c0,0.1-0.1,0.2-0.1,0.4c0,0.2-0.1,0.4-0.1,0.5c0,0.1-0.1,0.3-0.2,0.4
		c-0.1,0.2-0.2,0.3-0.3,0.4c0.2,0.2,0.2,0.5-0.1,1.1c0,0,0,0,0.1,0.1c0,0,0,0-0.1-0.1c-0.2,0.3-0.3,0.5-0.3,0.6
		c0,0.1-0.1,0.2-0.2,0.5c-0.1,0.3-0.3,0.5-0.3,0.8c-0.1,0.3-0.1,0.4,0,0.5c0,0,0.1-0.1,0.1-0.2c0-0.1,0.1-0.2,0.1-0.4
		c0-0.1,0.1-0.2,0.1-0.1c-0.2,0.7-0.4,1.2-0.4,1.5c-0.1,0.3-0.2,0.5-0.2,0.5c0,0,0,0,0-0.1c0-0.1,0-0.2-0.1-0.2
		c-0.1,0.1-0.1,0.1-0.1,0.2c0,0,0.1,0,0.2,0c-0.1,0.2-0.4,1.2-1,3c0,0.1-0.1,0.2-0.2,0.5c-0.1,0.3-0.2,0.6-0.3,0.8
		c-0.1,0.2-0.1,0.4-0.2,0.7c0,0.3,0,0.4,0.1,0.6c0.1-0.1,0.1-0.2,0.2-0.5c0.1-0.3,0.2-0.6,0.3-0.8c0.1-0.3,0.2-0.4,0.2-0.4
		c0,0-0.4,1-1.2,3.1c0,0.1-0.1,0.4-0.3,0.8c-0.1,0.5-0.3,0.9-0.4,1.2s-0.3,0.5-0.5,0.7c0-0.1,0.1-0.4,0.3-1s0.5-1.2,0.8-1.8
		c0.3-0.6,0.4-0.9,0.3-0.9c-0.3-0.1-0.8,1.2-1.6,4c-0.1,0.3-0.2,0.6-0.3,1.1c-0.2,0.5-0.3,0.8-0.3,0.9c-0.2,0.8-0.5,1.3-0.8,1.6
		c0,0.1-0.1,0.3-0.2,0.7c-0.1-0.1,0-0.4,0.1-0.8c0.1-0.4,0.1-0.7,0-0.8c-0.3,0.2-0.4,0.6-0.6,1.4c0-0.1,0-0.2,0-0.3
		c0-0.1,0-0.1,0-0.1c-0.1,0-0.2,0.3-0.3,0.7l0,0.1c-0.1,0-0.2,0.1-0.3,0.1c-0.1,0-0.2,0-0.3,0.1c0,0-0.1,0.2-0.2,0.5
		c-0.1,0.3-0.3,0.7-0.5,1.3c-0.1-0.1-0.1-0.2-0.1-0.4c0-0.2,0-0.4,0.1-0.7c0.1-0.2,0.1-0.4,0.1-0.4c0-0.2,0-0.4-0.1-0.7
		s-0.1-0.5-0.1-0.7c0-0.2,0-0.6,0.1-1.1c0-0.5,0-0.9,0-1.2c0.1,0,0.1,0,0.1,0.1c0.1-0.2,0.2-0.4,0.3-0.8c0.1-0.3,0.1-0.7,0.2-1.1
		s0.1-0.7,0.1-0.8c0,0,0-0.1,0.1-0.2c0-0.1,0.1-0.2,0.1-0.4c0-0.1,0.1-0.3,0.1-0.5c0.1-0.2,0.1-0.4,0.1-0.5c0-0.2,0.1-0.3,0.1-0.5
		c0-0.1,0-0.3,0-0.3s0-0.1,0-0.1c-0.1,0-0.4,1.1-0.8,3.1c-0.1,0.3-0.2,0.7-0.4,1.1c-0.2,0.4-0.3,0.8-0.4,1c0,0.1,0,0.3-0.1,0.6
		c-0.1,0.4-0.1,0.7-0.2,1c-0.1,0.3-0.1,0.5-0.2,0.5c-0.1,0-0.1-0.1,0-0.4c0.1-0.3,0.1-0.5,0.2-0.8c0.1-0.3,0.1-0.5,0.1-0.5l-0.3,0.2
		c0,0,0-0.1,0-0.1c0,0,0-0.1,0-0.2c0,0-0.1,0.1-0.1,0.3c0,0.2-0.1,0.3-0.1,0.5c0,0.2-0.1,0.4-0.1,0.6c0,0.2-0.1,0.3-0.1,0.3
		c-0.1-0.2-0.1-0.3-0.2-0.6c0-0.2,0-0.5,0-0.8c0-0.3,0.1-0.5,0.1-0.7c0-0.2,0.1-0.5,0.2-0.8c0.1-0.3,0.1-0.5,0.1-0.6
		c0-0.1,0.1-0.3,0.1-0.6c0-0.3,0.1-0.5,0.1-0.6c0-0.1,0-0.3,0.1-0.7s0.1-0.8,0.2-1.2c0.1-0.4,0.2-0.7,0.3-1.1s0.2-0.5,0.3-0.5
		c0,0,0,0,0,0.2c0,0.1,0,0.3-0.1,0.6c0,0,0.3-1.2,1-3.6c0-0.1,0.2-0.6,0.5-1.5c0.3-0.9,0.6-1.8,0.8-2.5c0.2-0.8,0.3-1.2,0.3-1.2
		c0.1,0.1,0.2,0.3,0.2,0.5l0,0c0.1-0.1,0.2-0.3,0.2-0.4c0.1-0.1,0.1-0.4,0.2-0.8s0.2-0.7,0.3-0.8c-0.1,0-0.1,0.1-0.2,0.3
		c-0.1,0.1-0.2,0.3-0.3,0.4c-0.1,0.1-0.1,0.2-0.2,0.2c0-0.2,0.1-0.4,0.1-0.5c0,0-0.3,0.2-0.9,0.6c-0.6,0.4-1.1,0.7-1.6,1
		c-0.5,0.3-0.7,0.4-0.8,0.3c0-0.1,0.1-0.1,0.1-0.2c0.1-0.1,0.2-0.2,0.3-0.2c0.1-0.1,0.3-0.1,0.4-0.2c0.1-0.1,0.3-0.1,0.4-0.2
		s0.2-0.1,0.3-0.2c0.1,0,0.3-0.2,0.6-0.3c0.4-0.2,0.6-0.3,0.8-0.5c0.2-0.2,0.3-0.3,0.4-0.5c0,0-0.2,0.1-0.5,0.3
		c-0.3,0.2-0.6,0.4-1,0.6c-0.4,0.2-0.6,0.3-0.6,0.4c-0.7,0.4-1.5,0.9-2.3,1.6c0.2-0.2,0.2-0.4,0.2-0.5c1-0.5,1.5-0.9,1.6-1.2
		c-0.1,0-0.6,0.3-1.5,1c-1,0.7-1.4,1.1-1.4,1.1c0,0,0-0.1,0.1-0.1c0.1-0.1,0.1-0.1,0.1-0.1l0,0c-0.3,0.2-0.5,0.3-0.5,0.2
		c0,0,0-0.1,0.1-0.2c0.1-0.1,0.2-0.2,0.3-0.3c0.1-0.1,0.2-0.2,0.3-0.3c0.1-0.1,0.3-0.2,0.4-0.3c0,0,0.1-0.1,0.2-0.2
		c0.1-0.1,0.2-0.1,0.3-0.2c0.1-0.1,0.2-0.2,0.3-0.2s0.2-0.2,0.3-0.2c0.1-0.1,0.1-0.1,0.2-0.2c0-0.1,0.1-0.1,0.1-0.1
		c-0.1,0.1-0.2,0.1-0.3,0.2c0-0.1,0-0.1,0.1-0.2c0.1,0,0.2-0.1,0.3-0.1c0.1,0,0.2,0,0.3-0.1c0.1,0,0.2-0.1,0.2-0.1c0,0-0.1,0-0.1,0
		c0.1-0.1,0.3-0.2,0.5-0.3c0.1,0,0.1-0.1,0.2-0.1c0.3-0.1,0.4-0.2,0.4-0.2l0,0l0,0c0.7-0.5,1-0.7,1-0.7c0.1,0,0.3-0.2,0.8-0.6
		c0.5-0.4,0.8-0.6,1-0.6c0,0,0,0.1,0,0.1c0.1-0.1,0.3-0.2,0.4-0.2c0.1-0.1,0.1-0.1,0.1-0.1c0,0,0,0-0.1,0c-0.1,0-0.1,0.1-0.3,0.1
		c0.1-0.1,0.1-0.1,0.2-0.2s0.1-0.1,0.1-0.1c-0.1-0.1-0.3,0-0.5,0.1c-0.2,0.1-0.4,0.2-0.6,0.4c-0.2,0.1-0.4,0.3-0.6,0.4
		c-0.2,0.2-0.4,0.3-0.4,0.3c-1.5,0.8-2.3,1.4-2.6,1.6c0,0,0,0,0.1-0.1c0.1-0.1,0.2-0.2,0.3-0.2c0.1-0.1,0.1-0.1,0.1-0.1
		c0,0-0.1,0-0.1,0c0,0-0.1,0.1-0.2,0.2c0,0,0-0.1,0.1-0.2c-0.1,0-0.2,0.1-0.4,0.2c-0.2,0.1-0.3,0.2-0.3,0.2c0.1-0.3,0.3-0.5,0.7-0.8
		c0.4-0.3,0.9-0.6,1.5-1c0.6-0.3,1-0.5,1-0.6c0.2-0.1,0.3-0.2,0.5-0.3c0.2-0.1,0.4-0.2,0.6-0.4c0.2-0.1,0.4-0.3,0.5-0.3
		c0.3-0.2,0.5-0.3,0.6-0.5c0.2-0.2,0.3-0.4,0.4-0.5s0.2-0.4,0.3-0.8c0-0.1,0.3-0.7,0.6-1.8c0.4-1.1,0.7-2.1,1.1-3
		c0.3-0.9,0.6-1.3,0.6-1.3C31,30.4,31,30.6,31,30.6c0,0,0.1-0.1,0.2-0.3c0.1-0.2,0.2-0.4,0.2-0.6c0.1-0.3,0.2-0.5,0.2-0.7
		c0.1-0.2,0.1-0.5,0.2-0.7c0.1-0.2,0.1-0.4,0.1-0.4c0.2-0.8,0.4-1.3,0.5-1.6c1.1-3.1,1.7-4.7,1.9-4.7c0.1,0.2,0,0.5-0.2,1.1
		c-0.2,0.5-0.4,1.1-0.7,1.7c-0.3,0.6-0.4,1-0.5,1.1c-0.1,0.3-0.3,0.8-0.5,1.5c-0.2,0.7-0.4,1.2-0.5,1.6c-0.1,0.4-0.3,0.9-0.5,1.4
		c-0.2,0.6-0.4,1.1-0.6,1.5c-0.1,0.2-0.2,0.5-0.3,0.8c-0.1,0.3-0.2,0.6-0.3,0.9c-0.1,0.3-0.2,0.6-0.3,0.8c0,0.1-0.1,0.3-0.2,0.6
		c-0.1,0.3-0.2,0.5-0.3,0.7c-0.1,0.2-0.2,0.4-0.2,0.6s-0.1,0.4-0.1,0.6c0.1-0.1,0.3-0.2,0.4-0.4c0.1-0.2,0.2-0.3,0.3-0.4
		c0.1-0.1,0.1-0.3,0.2-0.6c0.1-0.3,0.1-0.4,0.2-0.5c0.1-0.2,0.2-0.5,0.3-0.8s0.2-0.6,0.4-1c0.1-0.3,0.2-0.6,0.3-0.8
		c0.1-0.2,0.4-1.1,0.9-2.7c0.6-1.6,1.1-3.3,1.8-5s1.3-3.5,1.9-5.4c0.7-1.9,1.2-3.4,1.7-4.6s0.7-1.8,0.8-1.8c0.1,0.1,0,0.2,0,0.5
		c-0.1,0.2-0.1,0.5-0.2,0.7c-0.1,0.2-0.2,0.5-0.3,0.7s-0.2,0.4-0.2,0.5c0,0.2-0.1,0.4-0.2,0.6c-0.1,0.3-0.2,0.5-0.3,0.8
		c-0.1,0.3-0.2,0.5-0.2,0.7c0,0.2-0.5,1.6-1.5,4.3c-0.7,2-1.3,3.4-1.5,4.2c-0.4,0.9-0.7,1.6-0.8,2.1c0,0.1-0.1,0.2-0.2,0.4
		c-0.1,0.2-0.1,0.3-0.2,0.4c-0.1,0.1-0.1,0.3-0.2,0.4c0,0.2-0.1,0.3-0.1,0.5s0,0.3,0,0.4c0.1-0.1,0.2-0.3,0.3-0.6
		c0.1-0.3,0.2-0.6,0.3-1c0.1-0.4,0.2-0.6,0.2-0.6c0-0.1,0-0.2,0.1-0.4c0.1-0.2,0.1-0.4,0.2-0.6c0.1-0.2,0.1-0.3,0.2-0.5
		s0.1-0.3,0.2-0.4c0,0,0,0.1,0,0.2c0,0.1,0,0.1,0,0.2c0.7-1.8,1.2-3,1.5-3.6c0.2-0.5,0.5-1.3,0.9-2.5c0.4-1.2,0.7-2.1,1-2.7
		c0.9-2.2,1.6-4.3,2-6.3c0,0.1,0,0.2,0,0.3s0,0.2,0,0.3c0,0.1,0,0.2,0,0.3c0,0.1,0,0.1,0,0.2c0,0,0.1-0.1,0-0.2c0-0.1,0-0.1,0.1-0.1
		c0,0,0.1,0.1,0.1,0.3c0.2-0.3,0.2-0.6,0.1-1s-0.2-0.7-0.3-1c0,0,0.1,0,0.1,0.2c0.1,0.1,0.1,0.3,0.2,0.5c0.1,0.2,0.1,0.3,0.2,0.3
		c0-0.1,0-0.4,0-0.8c-0.1-0.4-0.1-0.8-0.2-1.1c-0.1-0.3-0.1-0.5-0.2-0.6c0,0,0.1,0.1,0.1,0.2c0.1,0.1,0.1,0.2,0.1,0.2l-0.1-0.9l0,0
		c0.1,0.1,0.3,0.4,0.5,0.9s0.3,0.8,0.3,1c0-0.1,0.1-0.2,0.2-0.4c0.1-0.2,0.2-0.3,0.2-0.3c0.1,0.1,0.1,0.4,0,0.8
		c-0.1,0.5-0.1,0.8,0,0.9c0.1,0.1,0.2,0.4,0.4,0.9c0.2,0.5,0.3,0.7,0.4,0.7c0,0,0-0.1,0-0.2c0-0.1,0-0.2,0-0.3c0-0.1,0-0.1,0-0.1
		c0,0,0.1,0.1,0.1,0.4c0.1,0.2,0.1,0.4,0.1,0.4c-0.1-0.1-0.2,0-0.1,0.2c0,0.2,0.1,0.3,0.1,0.4c0,0.2,0.1,0.4,0.2,0.7
		c0,0.1,0.1,0.2,0.1,0.4c0,0.4,0.1,0.6,0.2,0.6l0,0c0.3,1,0.4,1.6,0.5,1.6c0,0.1,0,0.3,0.1,0.6s0.1,0.7,0.1,1c0,0.3,0.1,0.7,0.2,1.1
		c0.1,0.4,0.1,0.7,0.2,0.9S42.9,21,43,21c0,0,0-0.1,0-0.5l0-0.1c0,0.1,0.1,0.2,0.1,0.3s0,0.1,0.1,0.2c0,0.1,0,0.1,0.1,0.1
		c0.1-0.2,0.2-0.5,0.1-1.1s-0.2-1.2-0.4-1.9c-0.2-0.7-0.3-1.1-0.3-1.2c-0.2-1-0.4-2.4-0.8-4.1c0,0,0.1,0.1,0.2,0.3
		c0.1,0.2,0.1,0.3,0.2,0.5c0.1,0.2,0.1,0.2,0.1,0.2c0,0,0-0.2-0.1-0.6c0,0,0.1,0.1,0.1,0.2l0.1,0.1c0-0.1,0-0.3-0.1-0.6
		c-0.1-0.3-0.1-0.4-0.1-0.5c0.2,0.2,0.4,0.5,0.5,0.9c0.2,0.4,0.3,0.8,0.3,1.2c0.1,0.4,0.1,0.8,0.2,1.3c0.1,0.5,0.1,0.8,0.2,1
		c0.1,0.4,0.2,0.8,0.3,1.3c0.1,0.5,0.2,1,0.3,1.4c0.1,0.4,0.2,0.8,0.2,1.2c0.6,3,0.9,5.4,1,7.3c0.3-0.1,0.4-0.1,0.5-0.1
		c0,0-0.1,0-0.2,0.1c-0.1,0.1-0.2,0.1-0.3,0.2c1.5-0.9,2.6-1.2,3.1-1.2c0,0,0.1-0.1,0.1-0.1c0.1,0,0.1,0,0.2-0.1c0,0,0.1,0,0.1,0
		c-0.1,0.1-0.2,0.2-0.4,0.3c-0.2,0.1-0.4,0.2-0.4,0.3c0.2,0,0.5-0.1,1-0.3c0,0,0,0,0,0.1c0,0-0.1,0.1-0.1,0.1c0,0-0.1,0.1,0,0.1
		c0.1,0,0.3,0,0.5-0.2c0.1,0,0.1,0.1,0.2,0.1c0.1,0.1,0.1,0.1,0.1,0.1c0.2,0,0.5-0.1,1.1-0.4c-0.2,0.1-0.7,0.4-1.2,1
		c-0.6,0.6-1,1-1.2,1.3l-0.1,0.1c0,0-0.1,0-0.1,0.1l0,0c0,0-0.2,0.1-0.5,0.2c-0.3,0.1-0.5,0.2-0.7,0.3c-0.2,0.1-0.4,0.2-0.6,0.4
		c-0.2,0.1-0.4,0.3-0.5,0.4c-0.1,0.1-0.2,0.2-0.2,0.3c0.1-0.2,0.5-0.4,1.1-0.8C47.4,29.7,48.1,29.4,48.7,29.1z M21.5,54.9
		c0,0,0,0.1-0.1,0.3L21.5,54.9L21.5,54.9z M21.6,59.7c0,0.1,0,0.1-0.1,0.2C21.5,59.8,21.5,59.7,21.6,59.7z M21.6,60.9
		c0-0.1,0-0.2,0-0.3c0.1-0.1,0.1-0.1,0.2-0.2c0.1-0.1,0.1-0.1,0.2-0.2c-0.1,0.1-0.1,0.3-0.1,0.3c0,0.1-0.1,0.1-0.1,0.2
		C21.7,60.8,21.7,60.9,21.6,60.9z M21.8,59.2c0,0.1,0,0.1,0,0.2L21.8,59.2L21.8,59.2z M21.9,43.6l0.2-0.1
		C21.9,43.5,21.9,43.6,21.9,43.6z M22,43.8L22,43.8C21.9,43.8,22,43.8,22,43.8z M22.2,57.6c0.1-0.2,0.1-0.3,0.1-0.5
		c-0.1-0.2-0.2-0.1-0.1,0.2C22.2,57.5,22.2,57.6,22.2,57.6z M22.5,41.6c-0.1,0.1-0.1,0.1-0.2,0.1c0,0-0.1,0-0.1,0
		c0.1-0.1,0.2-0.2,0.3-0.3L22.5,41.6L22.5,41.6z M22.8,55.5c0.2-0.2,0.2-0.3,0.1-0.5c0,0-0.1,0.1-0.3,0.4c-0.1,0.3-0.2,0.6-0.3,0.9
		c-0.1,0.3-0.1,0.5,0,0.6c0,0,0.1-0.1,0.1-0.3c0.1-0.2,0.1-0.4,0.2-0.7C22.7,55.6,22.8,55.5,22.8,55.5z M22.8,41.1c0,0,0,0,0.1,0
		C22.8,41.1,22.8,41.2,22.8,41.1z M23.2,53.7c0,0,0-0.1,0-0.1c0-0.1,0-0.1,0-0.1c0,0,0,0,0,0.1C23.2,53.6,23.2,53.7,23.2,53.7
		c-0.1,0.1-0.1,0.2-0.1,0.2C23.2,53.9,23.2,53.8,23.2,53.7z M23.2,52.2c0,0.2,0,0.2,0,0.2C23.2,52.4,23.2,52.4,23.2,52.2z
		 M23.3,41.6c-0.1,0.1-0.2,0.1-0.2,0.1L23.3,41.6z M23.3,51.7c0,0-0.1,0.1-0.1,0.4l0.1-0.1l0-0.1C23.4,51.9,23.4,51.8,23.3,51.7z
		 M23.3,53.3c0.1-0.1,0.1-0.2,0-0.2l0,0C23.2,53.3,23.2,53.4,23.3,53.3C23.3,53.4,23.3,53.4,23.3,53.3z M23.6,40.6
		C23.7,40.6,23.7,40.6,23.6,40.6l-0.3,0.2C23.3,40.8,23.4,40.8,23.6,40.6z M23.4,56.4c0,0.1,0,0.2-0.1,0.3
		C23.3,56.7,23.3,56.6,23.4,56.4z M23.5,52.9l0-0.4C23.3,52.7,23.3,52.9,23.5,52.9C23.4,53,23.4,53,23.5,52.9z M23.6,49.8l-0.2,0.8
		C23.3,50.5,23.4,50.3,23.6,49.8z M23.6,52.1c0,0,0-0.1,0-0.1c0-0.1,0-0.1,0-0.1c0,0,0,0-0.1,0.1C23.6,52.1,23.6,52.1,23.6,52.1z
		 M23.7,40.5c0.1,0,0.2,0,0.3-0.1s0.2-0.1,0.3-0.2c-0.1,0-0.2,0.1-0.2,0.1c-0.1,0-0.1,0-0.2,0.1S23.8,40.3,23.7,40.5
		C23.8,40.4,23.8,40.4,23.7,40.5z M24,50.8l-0.2,0.4l0,0L24,50.8z M23.9,41.1c0.1-0.2,0.3-0.3,0.4-0.2c-0.2,0.1-0.3,0.2-0.3,0.3
		L23.9,41.1z M24,41.9c0.1,0,0.1,0,0.2-0.1s0.2-0.1,0.3-0.2c0.1-0.1,0.2-0.1,0.2-0.1c0,0-0.1,0-0.2,0.1c-0.1,0.1-0.2,0.1-0.3,0.2
		C24.1,41.8,24,41.9,24,41.9z M24.3,49.3c0,0,0,0.1,0,0.2c0,0.1,0,0.1,0,0.2c0,0.1,0,0.1,0,0.2c0,0,0-0.1,0.1-0.2
		c0-0.1,0.1-0.3,0.1-0.5C24.3,49.3,24.3,49.3,24.3,49.3z M24.8,40.7l-0.3,0.2C24.5,40.9,24.6,40.8,24.8,40.7z M24.6,48.5l0-0.2l0,0
		C24.5,48.4,24.6,48.4,24.6,48.5C24.6,48.5,24.6,48.5,24.6,48.5z M24.7,41.4c0,0,0.1,0,0.1,0c0.1,0,0.1-0.1,0.1-0.1L24.7,41.4z
		 M24.9,50.9L24.9,50.9c0-0.2,0-0.3-0.1-0.3C24.7,50.8,24.7,50.9,24.9,50.9z M24.8,47.6c0.1,0,0.2,0,0.1-0.2c0,0,0,0,0-0.1
		C24.9,47.3,24.8,47.4,24.8,47.6C24.8,47.6,24.8,47.6,24.8,47.6z M25,60.6c-0.1-0.4-0.2-0.7,0-1c0,0.4,0.1,0.6,0.1,0.8
		C25,60.5,25,60.6,25,60.6z M25,50.5c0,0,0-0.1,0-0.1c0-0.1,0-0.1,0-0.1c-0.1,0-0.2,0-0.1,0.2C24.9,50.4,24.9,50.5,25,50.5z
		 M24.9,47.1L24.9,47.1c0,0.1,0,0.1,0,0.1c0,0,0.1,0.1,0.1,0c0-0.1,0-0.1,0-0.2C25,47,25,47,24.9,47.1z M25.1,46.6
		c0.1-0.1,0.1-0.2,0.1-0.2l-0.1,0C25.1,46.5,25.1,46.6,25.1,46.6z M25.5,48.7l0-0.2c0,0-0.1,0-0.1,0.1c0,0.1-0.1,0.2-0.1,0.3
		c0,0.1,0,0.2,0,0.2C25.3,48.9,25.4,48.8,25.5,48.7L25.5,48.7z M25.7,47.6c0-0.1,0-0.2,0.1-0.2c-0.1,0.1-0.2,0.3-0.1,0.5
		C25.8,47.8,25.8,47.7,25.7,47.6z M25.8,44c0,0,0,0.1,0,0.1c0.1,0,0.2-0.1,0.2-0.3c0-0.1,0-0.1-0.1-0.2c0,0,0,0.1-0.1,0.2
		S25.9,43.9,25.8,44z M25.9,47.2c0.1,0,0.1-0.1,0-0.1C25.9,47.2,25.9,47.2,25.9,47.2z M26.1,46.7c0.1-0.3,0.1-0.4,0.1-0.4
		c0,0-0.1-0.1-0.1,0C26,46.7,26,46.8,26.1,46.7z M26.2,46.1C26.4,46,26.4,46,26.2,46.1C26.3,46,26.3,46,26.2,46.1z M26.3,45.9
		c0,0,0.1-0.1,0.1-0.1c0-0.1,0.1-0.2,0.1-0.3c0-0.1,0.1-0.3,0.1-0.4c0-0.1,0-0.2,0.1-0.4c0-0.1,0-0.2,0.1-0.2c0,0-0.1,0.1-0.2,0.3
		c-0.1,0.2-0.2,0.4-0.3,0.6C26.3,45.6,26.2,45.7,26.3,45.9z M26.5,41.2c0.2-0.1,0.3-0.2,0.3-0.2c0,0,0.1-0.1,0.1-0.3
		c-0.2,0.1-0.3,0.2-0.4,0.3C26.4,41,26.4,41.1,26.5,41.2z M27.1,43.7c0-0.1,0-0.2-0.1-0.2C26.9,43.5,27,43.6,27.1,43.7z M27.3,42.6
		c-0.1-0.1-0.2,0-0.2,0.3c0,0.2,0,0.3,0.1,0.3c0,0,0,0,0-0.1C27.3,42.8,27.3,42.7,27.3,42.6z M27.3,42.4c0,0.1,0.1,0.1,0.3-0.1
		C27.5,42.2,27.4,42.2,27.3,42.4z M27.5,55.3c0-0.3,0-0.4,0.1-0.3c0,0.1,0.1,0.1,0.1,0.1C27.6,55.2,27.6,55.3,27.5,55.3z M27.9,41.2
		c-0.1-0.2-0.2-0.1-0.2,0.2c0.1,0,0.1,0,0.2,0C27.8,41.3,27.9,41.3,27.9,41.2z M28.8,50c0.1-0.1,0.2-0.2,0.3-0.5l0,0
		C28.8,49.7,28.7,49.9,28.8,50z M29.2,49.2c0.1-0.1,0.1-0.2,0-0.2C29,49.1,29,49.2,29,49.3C29,49.3,29.1,49.3,29.2,49.2z M29.3,48.8
		c0-0.1,0.1-0.2,0.1-0.3c0-0.1,0-0.1,0-0.1c-0.1,0-0.1,0-0.1,0.2L29.3,48.8z M29.4,48.3c0.1-0.2,0.1-0.4,0.1-0.4
		C29.3,48,29.3,48.2,29.4,48.3z M30.2,46c0-0.1,0-0.1-0.1,0c0,0-0.1,0.1-0.1,0.1l0,0c-0.1,0.1-0.1,0.2-0.1,0.3c0,0.1,0,0.1-0.1,0.1
		c-0.2,0.5-0.2,0.8-0.1,0.8c0,0,0.1-0.2,0.2-0.6C30.1,46.4,30.2,46.2,30.2,46z M29.7,49.3c0,0,0-0.1,0-0.1
		C29.7,49.2,29.7,49.3,29.7,49.3z M29.8,49.1c0,0,0-0.1,0-0.2c0-0.1,0.1-0.2,0.1-0.3L29.8,49.1L29.8,49.1z M30.2,47.7c0,0,0,0,0-0.1
		l0,0C30.3,47.6,30.3,47.7,30.2,47.7z M30.4,31.9c0,0,0,0.1,0,0.1c0,0.1,0,0.1,0,0.1c0,0,0.1-0.1,0.1-0.3c0.1-0.2,0.1-0.3,0.1-0.3
		c0,0,0,0.1,0,0.1c0,0-0.1,0.1-0.1,0.2C30.5,31.8,30.4,31.9,30.4,31.9z M30.6,45c0.1-0.3,0.2-0.5,0.1-0.6c-0.1-0.2-0.2-0.1-0.2,0.4
		L30.6,45L30.6,45z M30.7,31.3c0,0.1,0,0.1,0,0.1c0.1-0.1,0.2-0.2,0.1-0.3l0-0.1C30.8,31,30.7,31.1,30.7,31.3
		C30.7,31.2,30.7,31.2,30.7,31.3z M31.2,43.5c0,0,0,0,0-0.1l0,0L31.2,43.5z M31.3,29.4l0,0.2L31.3,29.4L31.3,29.4z M31.3,43.2l0-0.2
		L31.3,43.2L31.3,43.2z M31.7,31.8c0,0.1-0.1,0.2-0.2,0.2c0.1,0.2,0.1,0.2,0.1,0C31.7,31.9,31.7,31.8,31.7,31.8z M31.9,31.4l0.2-0.3
		l0-0.1c0,0,0,0.1-0.1,0.1c0,0,0,0.1,0,0.2C31.9,31.3,31.9,31.4,31.9,31.4z M32.4,40.5c0-0.1,0-0.1,0-0.1
		C32.4,40.4,32.4,40.4,32.4,40.5z M32.4,26.6l0.2-0.7C32.6,26,32.5,26.2,32.4,26.6z M32.8,39.4c0,0.1-0.1,0.2-0.1,0.2
		C32.7,39.6,32.7,39.5,32.8,39.4L32.8,39.4L32.8,39.4z M32.8,38.2c0.5-0.3,1.3-0.8,2.4-1.3c1.1-0.6,1.9-1,2.4-1.4
		c0-0.1-0.2,0-0.5,0.2c-0.4,0.2-0.7,0.3-1.1,0.5c-0.4,0.2-0.7,0.3-0.8,0.4c-0.1,0.1-0.4,0.2-0.9,0.4c-0.5,0.2-0.8,0.4-1.1,0.6
		C32.9,37.7,32.8,37.9,32.8,38.2z M33.3,27.7c0.3-0.5,0.4-0.8,0.3-0.9c0,0,0,0-0.1,0.1c0,0.1-0.1,0.2-0.1,0.4
		C33.3,27.4,33.3,27.6,33.3,27.7z M33.6,37c0,0-0.1,0-0.2,0.1c0,0,0,0-0.1,0.1L33.6,37L33.6,37z M33.9,26.4c-0.1-0.1-0.1,0-0.2,0.2
		L33.9,26.4z M34,36.8c0,0,0,0.1-0.1,0.1c-0.1,0-0.1,0-0.1,0.1C33.9,37,34,37,34,36.8z M33.9,25.9L33.9,25.9c0-0.2,0.1-0.2,0.1-0.2
		C34,25.6,34,25.7,33.9,25.9z M34.1,37.8C34.2,37.7,34.2,37.7,34.1,37.8c-0.1-0.1-0.2,0-0.2,0.1C34,37.9,34,37.9,34.1,37.8
		C34.1,37.8,34.1,37.8,34.1,37.8z M34.3,25c0,0.1,0,0.2-0.1,0.3L34.3,25z M34.6,37.5L34.6,37.5c-0.2,0-0.3,0-0.3,0.1
		c0.1-0.1,0.2-0.1,0.2-0.1C34.5,37.6,34.6,37.5,34.6,37.5z M41.5,29.8c0.1,0,0.2-0.2,0.3-0.5l-0.2,0.1l0,0c0.1-0.1,0.2-0.1,0.2-0.1
		c0.1-0.4,0-0.9-0.1-1.6c-0.1-0.7-0.2-1.4-0.4-2.1c-0.1-0.7-0.2-1.1-0.2-1.2c-0.1-0.5-0.2-1.5-0.5-3.2c-0.3-1.7-0.5-3-0.5-3.9
		c-0.1,0.4-0.6,2-1.5,4.8c-0.4,1.2-1,3.2-2.1,5.8c-1,2.6-1.7,4.7-2.2,6.1c0.2-0.2,0.5-0.3,0.8-0.5c0.3-0.2,0.6-0.3,0.9-0.5
		c0.3-0.2,0.5-0.3,0.7-0.5c0.3-0.2,0.6-0.4,1.2-0.6c0.8-0.3,1.1-0.5,1.2-0.7c-0.2,0.1-0.3,0.1-0.4,0.2c0,0,0.2-0.1,0.4-0.2
		c0.2-0.1,0.4-0.2,0.5-0.3c0.1-0.1,0.2-0.1,0.2-0.1c-0.1,0-0.1,0.1,0,0.2c0,0,0.1-0.1,0.2-0.3c0.1,0,0.2,0,0.3,0
		c0.3,0,0.5-0.1,0.5-0.3c-0.1,0-0.2,0.1-0.3,0.1c0.1-0.1,0.1-0.2,0.2-0.4c0-0.2,0.1-0.3,0.1-0.4c0-0.1,0-0.2,0-0.2
		c0.1,0.5,0.2,0.6,0.2,0.6c0.1-0.1,0.1-0.5,0-1.1c-0.1-0.6-0.2-1.2-0.4-2c-0.2-0.7-0.3-1.1-0.3-1.2c0,0,0-0.2-0.1-0.7
		c-0.1-0.4-0.1-0.8-0.2-1.2c-0.1-0.4-0.1-0.8-0.2-1.3c0-0.5-0.1-0.8-0.1-1.1S40,21,40,21c0.1,0.2,0.2,0.4,0.2,0.7
		c0,0.2,0.1,0.6,0.1,1c0,0.4,0,0.7,0.1,0.8c0,0.2,0.1,0.6,0.2,1s0.2,0.8,0.2,1c0.1,0.3,0.1,1,0.3,2C41.2,28.5,41.3,29.3,41.5,29.8z
		 M34.6,21.4c-0.1,0-0.1-0.1,0-0.2C34.6,21.2,34.6,21.3,34.6,21.4z M36.7,24c0,0,0,0.1,0,0.1C36.7,24.1,36.7,24,36.7,24z M36.8,32.3
		c0,0,0,0,0.1,0C36.9,32.3,36.9,32.3,36.8,32.3z M37.9,20.3c0,0.1-0.1,0.4-0.2,1c-0.1,0.6-0.2,1-0.3,1.2l0,0l0,0
		c0,0.1-0.1,0.2-0.1,0.3c0.1-0.1,0.1-0.1,0.1-0.2c0,0.3-0.1,0.5-0.1,0.5c0.2-0.1,0.5-0.5,0.7-1.1c0.2-0.6,0.5-1.3,0.7-2.1
		c0.2-0.8,0.3-1.3,0.4-1.4c0-0.1,0.1-0.2,0.2-0.5c0.1-0.2,0.2-0.4,0.2-0.5c0.1-0.1,0.1-0.3,0.2-0.5c0.1-0.2,0.1-0.4,0.2-0.6
		c0-0.2,0.1-0.3,0.1-0.5c0-0.1,0-0.3-0.1-0.6c0-0.3-0.1-0.5-0.1-0.5c-0.1,0-0.2,0-0.3,0.1c-0.1,0.1-0.1,0.3-0.1,0.4
		c-0.1,0.2-0.2,0.6-0.3,1c0,0,0,0.1-0.1,0.2s-0.1,0.2-0.1,0.4c0,0.1,0,0.2,0,0.2c-0.3,1.1-0.4,1.7-0.4,1.7c0,0.1-0.1,0.3-0.2,0.6
		C38,19.9,37.9,20.2,37.9,20.3z M37.3,22.7C37.3,22.6,37.3,22.6,37.3,22.7L37.3,22.7C37.3,22.6,37.3,22.6,37.3,22.7z M38,17
		c0,0,0,0.1,0,0.1c0,0.1,0,0.1,0,0.1C38.1,17.2,38.1,17.1,38,17C38.1,16.9,38,16.9,38,17z M38.5,15.6c-0.1,0-0.1,0.1-0.2,0.3
		c0,0.2-0.1,0.3-0.1,0.5c0,0.2-0.1,0.3-0.1,0.4c0.2-0.4,0.3-0.6,0.4-0.8S38.5,15.7,38.5,15.6z M38.6,14.9c-0.1,0.3-0.1,0.4-0.1,0.5
		c0.2-0.1,0.3-0.2,0.3-0.5C39,14.6,39,14.3,39,14c0-0.3,0-0.6,0.1-0.9c0-0.3,0.1-0.5,0.1-0.7c-0.2,0.1-0.3,0.4-0.4,0.7
		c-0.1,0.3-0.1,0.7-0.2,1.1C38.7,14.7,38.6,14.9,38.6,14.9z M38.6,17.7l0.1,0.2c0,0,0.1-0.2,0.1-0.5C38.7,17.4,38.7,17.5,38.6,17.7z
		 M38.9,31.3C38.8,31.3,38.8,31.3,38.9,31.3C38.8,31.3,38.8,31.3,38.9,31.3C38.9,31.3,38.9,31.3,38.9,31.3z M39,16.5
		c0.2,0,0.2,0.2,0,0.5l-0.2,0.2C38.9,17,38.9,16.7,39,16.5z M39.3,35.6c0,0-0.1,0-0.1,0c0,0-0.1,0.1-0.2,0.1c-0.1,0-0.1-0.1,0-0.1
		L39.3,35.6L39.3,35.6z M39.3,18.5c0-0.1-0.1-0.1-0.1,0.1c0,0,0,0.1,0,0.1C39.2,18.7,39.3,18.6,39.3,18.5z M39.4,11.6
		c0,0.1-0.1,0.1-0.1,0.2c0,0,0,0.1-0.1,0.1c0,0,0-0.1,0-0.1c0-0.1,0.1-0.1,0.1-0.3C39.5,11.5,39.5,11.5,39.4,11.6z M39.6,15
		c-0.1,0.1-0.1,0.3-0.2,0.5C39.4,15.2,39.5,15.1,39.6,15z M39.5,31.1c0.1,0,0.2-0.1,0.3-0.1c0,0,0-0.1,0-0.1l-0.1,0
		c-0.1,0-0.2,0.1-0.2,0.1C39.4,31,39.4,31.1,39.5,31.1z M39.8,17.3c0.1-0.1,0.1-0.2,0-0.2c0,0-0.1,0-0.2,0.2
		c-0.1,0.2-0.1,0.3-0.2,0.5c-0.1,0.2-0.1,0.3-0.1,0.3c0.1-0.1,0.2-0.2,0.3-0.6C39.7,17.5,39.8,17.4,39.8,17.3z M39.6,10.7l-0.1-0.3
		l0,0C39.5,10.3,39.5,10.5,39.6,10.7z M39.5,35.3C39.6,35.4,39.6,35.4,39.5,35.3c0,0.1,0,0.1-0.1,0.1L39.5,35.3L39.5,35.3z
		 M39.5,34.3c0.1,0,0.1,0,0.1,0c0,0,0.1,0,0.1-0.1c0-0.1,0-0.1-0.1-0.1C39.5,34.1,39.5,34.2,39.5,34.3z M40,15.7
		c0.1-0.2,0.2-0.7,0.2-1.3c0-0.6-0.1-1-0.3-1.2c0,0,0,0.1,0.1,0.2s0,0.1,0,0.2c-0.2,0.4-0.2,0.7-0.1,0.8l0.1-0.3c0,0.5,0,0.8,0,1.1
		C40,15.5,40,15.6,40,15.7z M39.8,35.2C39.8,35.2,39.8,35.2,39.8,35.2C39.9,35.2,39.9,35.3,39.8,35.2z M40,16.5
		c-0.1,0.3-0.1,0.5-0.1,0.5c0,0,0-0.1,0.1-0.1c0-0.1,0.1-0.1,0.1-0.2C40,16.6,40,16.5,40,16.5z M40,20.6c0,0,0,0,0.1,0.1
		C40,20.8,40,20.8,40,20.6z M40.1,11.9c-0.1,0.3-0.2,0.6,0,1.1c0.1,0.5,0.3,0.8,0.5,0.9c0,0,0.1-0.1,0.1-0.2s0-0.2-0.1-0.3
		c0-0.1-0.1-0.2-0.1-0.3s-0.1-0.2-0.1-0.2c-0.1-0.1-0.1-0.2-0.2-0.5C40.2,12.2,40.2,12,40.1,11.9z M40.1,16c0.1,0,0.1-0.2,0.1-0.7
		c0,0.1,0,0.1,0,0.1c0,0,0,0.1-0.1,0.2C40.1,15.8,40.1,15.9,40.1,16C40.1,16,40.1,16.1,40.1,16z M40.3,33.9c0-0.1,0-0.1-0.1-0.1
		c0,0-0.1,0-0.1,0l0,0c0,0.1,0,0.1,0.1,0.1C40.2,33.9,40.2,33.9,40.3,33.9L40.3,33.9z M40.2,35.1l0.6-0.4
		C40.4,35,40.2,35.1,40.2,35.1z M41,20.5c-0.2-1.5-0.4-3-0.6-4.3c0,0.1,0,0.2-0.1,0.3c-0.1,0.2-0.1,0.3-0.1,0.3c0,0.1,0,0.3,0.1,0.6
		c0.1,0.3,0.1,0.4,0.1,0.5c0,0.1,0.1,0.4,0.1,0.7c0,0.3,0.1,0.5,0.1,0.6c0.1,0.3,0.1,0.8,0.2,1.4c0.1,0.6,0.1,1.1,0.2,1.4
		c0,0.1,0.2,1,0.4,2.4l0,0l0.1,0.2l-0.1-0.1c0,0.1,0,0.2,0,0.2c0,0,0,0.1,0,0.1c0,0.1,0,0.1,0.1,0.1c0,0,0-0.3-0.1-1
		c-0.1-0.7-0.2-1.4-0.3-2.2S41.1,20.6,41,20.5z M40.4,30.5c-0.1,0-0.1,0-0.1,0c0.1-0.1,0.3-0.1,0.4-0.2
		C40.6,30.4,40.5,30.5,40.4,30.5z M40.5,26l-0.2-0.6C40.4,25.4,40.4,25.6,40.5,26z M40.7,33.6C40.7,33.6,40.7,33.6,40.7,33.6
		c-0.2,0-0.3,0.1-0.3,0.1c0,0,0,0,0.1,0.1L40.7,33.6z M40.8,14.4c0-0.1-0.1-0.2-0.2-0.3C40.6,14.3,40.6,14.4,40.8,14.4
		c0,0.3,0,0.6,0,0.7c0,0.1,0.1,0.2,0.1,0.2c0,0,0-0.1,0-0.2c0-0.1-0.1-0.3-0.1-0.4C40.8,14.6,40.8,14.5,40.8,14.4z M40.9,29
		l-0.1-0.2l0,0L40.9,29z M41.1,15.7c0-0.1,0-0.2-0.1-0.3c-0.1,0.3-0.1,0.4,0,0.4L41.1,15.7z M41.4,39.1c-0.1-0.1-0.1-0.1,0-0.2l0,0
		c0-0.2-0.1-0.3,0-0.3L41.4,39.1z M41.3,13.2c0,0,0,0.2,0,0.5C41.3,13.4,41.3,13.2,41.3,13.2z M41.5,39.5c-0.1,0-0.1,0-0.1-0.1
		l0-0.2c0,0,0.1,0.1,0.1,0.1C41.5,39.4,41.5,39.4,41.5,39.5z M41.5,24.1l-0.1-0.2l0,0C41.5,23.9,41.5,24,41.5,24.1z M41.5,39.9
		c0,0,0,0.1,0,0.1C41.5,40,41.5,39.9,41.5,39.9z M41.7,41.5c0-0.1,0-0.3-0.1-0.4s0-0.2-0.1-0.3c0-0.1,0-0.2-0.1-0.4
		c0.1,0.2,0.1,0.4,0.2,0.5s0.1,0.2,0.1,0.3C41.7,41.4,41.7,41.5,41.7,41.5z M41.5,14.4L41.5,14.4L41.5,14.4z M41.6,11.9l0.2,0.6
		c0,0,0-0.1-0.1-0.1c0-0.1-0.1-0.1-0.1-0.2s0-0.1-0.1-0.2C41.6,12,41.6,11.9,41.6,11.9z M41.6,14.6c0.1,0.1,0.1,0.2,0.2,0.3
		c0,0.2,0,0.3,0,0.4c0-0.2-0.1-0.4-0.1-0.6C41.6,14.7,41.6,14.6,41.6,14.6z M41.8,25.3L41.8,25.3c0-0.1,0-0.2-0.1-0.2
		c0,0-0.1,0-0.1,0.1c0,0,0,0.1,0,0.1c0,0.1,0,0.1,0,0.1c0,0.1,0,0.1,0,0C41.8,25.4,41.8,25.4,41.8,25.3z M41.7,29.8
		c0,0,0.1,0,0.2-0.1L41.7,29.8L41.7,29.8z M41.8,15.5c-0.1,0.1-0.1,0.3,0.2,0.5c0,0,0-0.1-0.1-0.3C41.8,15.6,41.8,15.5,41.8,15.5z
		 M41.9,26.5c0-0.5,0-0.8-0.1-0.9l0,0.2c0,0.1,0,0.2,0.1,0.3C41.8,26.4,41.9,26.5,41.9,26.5z M42.1,28.9c0-0.1,0-0.3,0-0.5
		c0-0.2,0-0.4-0.1-0.6c0-0.2-0.1-0.4-0.1-0.6c-0.1-0.2-0.1-0.4-0.1-0.5c0,0.4,0,0.8,0,1.1c0,0,0,0.2,0.1,0.5
		C41.9,28.6,42,28.8,42.1,28.9z M41.9,32.9c0.2-0.1,0.3-0.2,0.3-0.2C42.1,32.6,42,32.7,41.9,32.9z M42.4,34.1c0-0.2,0-0.3,0-0.4
		C42.1,33.9,42,34,42,34.2c0,0.2,0,0.4,0.1,0.6c0.1,0.2,0.2,0.4,0.2,0.5c0,0.1,0,0.2,0,0.4c0,0.2,0,0.4,0,0.6c0,0.1,0.1,0.3,0.2,0.4
		c0.1-0.2,0.1-0.5,0.1-0.8s-0.1-0.7-0.2-1C42.3,34.6,42.3,34.3,42.4,34.1z M42.2,13c0,0,0,0.1,0,0.1C42.1,13,42.1,13,42.2,13z
		 M42.2,42.9c0,0,0,0.1,0,0.1s0,0.1,0,0.1c0,0,0,0.1,0.1,0.1c-0.1,0.1-0.1,0.1,0.1,0.2C42.3,43,42.3,42.9,42.2,42.9z M42.3,13.9
		c0,0,0,0.1,0,0.2c0,0.1,0,0.2,0.1,0.3s0.1,0.2,0.1,0.2c0.1,0.2,0.1,0.1,0,0C42.4,14.1,42.4,13.9,42.3,13.9z M42.4,54.3l0.1,0.3
		C42.4,54.5,42.4,54.4,42.4,54.3z M42.7,37.7c0-0.3-0.1-0.4-0.1-0.4c-0.1,0-0.1,0.2-0.1,0.5c0,0.3,0.1,0.4,0.2,0.4
		c0,0,0-0.1,0.1-0.2C42.7,37.8,42.7,37.7,42.7,37.7z M42.5,49.4l0,0.4c0,0-0.1-0.3-0.1-0.8L42.5,49.4z M42.6,15.3
		c0,0.2,0,0.3,0.1,0.4c0-0.1,0-0.2,0-0.6c0-0.3-0.1-0.5-0.1-0.5c-0.1,0-0.1,0.2,0,0.4C42.6,15.2,42.6,15.3,42.6,15.3z M42.6,45.8
		c0-0.1,0.1-0.2,0-0.3c0,0-0.1,0-0.1,0.1C42.6,45.7,42.6,45.8,42.6,45.8z M42.7,38.9C42.8,38.9,42.8,38.9,42.7,38.9l-0.1-0.3
		L42.7,38.9L42.7,38.9z M42.6,46.3c0,0,0,0.1,0.1,0.1c0,0,0.1,0,0.1,0c0,0,0,0,0-0.1C42.7,46.2,42.7,46.2,42.6,46.3z M42.7,46.8
		c0.1,0,0.1,0,0.1-0.1c-0.1-0.2-0.1-0.2-0.2-0.1C42.6,46.7,42.6,46.7,42.7,46.8z M42.8,16.2c0,0,0,0.1,0.1,0.3
		C42.9,16.4,42.9,16.3,42.8,16.2z M42.9,40.3c0-0.1,0-0.2-0.1-0.2c-0.1,0.1-0.1,0.2,0,0.3C42.8,40.4,42.9,40.4,42.9,40.3z
		 M42.9,47.6c0-0.1,0-0.1-0.1-0.1C42.9,47.6,42.9,47.6,42.9,47.6z M43,41.2L43,41.2l-0.1,0.2c0.1,0.1,0.1,0.1,0.2-0.1
		C43.1,41.3,43.1,41.2,43,41.2z M43.1,48.8c0-0.1-0.1-0.3-0.1-0.4c0,0-0.1,0-0.1,0.1c0,0,0,0.1,0,0.2S43,48.7,43.1,48.8
		c0,0,0,0.1,0,0.2C43.1,49,43.1,48.9,43.1,48.8z M43.1,42.1c0.1-0.1,0.1-0.1,0-0.1c0,0-0.1,0,0-0.1c0-0.1,0-0.2,0-0.2
		c0,0,0-0.1-0.1-0.1c0,0-0.1,0-0.1,0.1C43,41.9,43,42,43.1,42.1z M43,51.2c0,0,0-0.1,0-0.2c0-0.1,0-0.2-0.1-0.2c0,0,0,0,0,0.1
		c0,0.1,0,0.1,0,0.2C43,51.2,43,51.2,43,51.2z M43.2,42.6c0-0.1,0-0.1-0.1-0.2c-0.1,0-0.1,0-0.1,0C43,42.5,43.1,42.5,43.2,42.6z
		 M43.1,51.5L43,51.3C43,51.4,43,51.5,43.1,51.5z M43.2,22c0-0.1,0-0.1,0-0.1C43.1,21.9,43.1,22,43.2,22z M43.2,50.2L43.2,50.2
		c0.1-0.1,0-0.2,0-0.2l-0.1-0.3L43.2,50.2z M43.3,43.6c0-0.1,0-0.2-0.1-0.3c0,0.1,0,0.3,0,0.7c0,0.4,0.1,0.6,0.2,0.7
		c0.1,0,0.1-0.1,0.1-0.2c0-0.1,0-0.2-0.1-0.3s-0.1-0.2-0.1-0.4C43.3,43.7,43.3,43.6,43.3,43.6z M43.4,51.1c0,0,0-0.1,0-0.1
		c0-0.1,0-0.1,0-0.1L43.4,51.1L43.4,51.1z M43.6,45.5c0,0,0-0.1,0-0.1c0-0.1,0-0.1,0-0.1c0,0,0,0-0.1-0.1c0,0-0.1,0-0.1,0
		C43.4,45.5,43.5,45.6,43.6,45.5z M43.5,51.8c0,0,0-0.1,0-0.1c0,0,0-0.1,0-0.1c0,0,0-0.1,0-0.1C43.4,51.7,43.4,51.9,43.5,51.8
		L43.5,51.8z M43.4,44.9C43.6,44.8,43.6,44.7,43.4,44.9C43.4,44.8,43.4,44.9,43.4,44.9C43.4,44.9,43.4,44.9,43.4,44.9
		C43.4,44.9,43.4,44.9,43.4,44.9z M43.6,52.2c0-0.2,0-0.2-0.1-0.2l0,0C43.5,52.2,43.5,52.3,43.6,52.2z M43.6,46.1c0,0,0-0.1,0-0.1
		C43.5,46,43.5,46,43.6,46.1z M43.6,46.4c0-0.1,0-0.1-0.1-0.2c0,0.1,0,0.2,0.1,0.4C43.7,46.5,43.7,46.4,43.6,46.4z M43.6,52.6
		l-0.1-0.2l0,0c0,0.2,0.1,0.4,0.1,0.4C43.7,52.7,43.7,52.7,43.6,52.6z M43.8,47.5L43.8,47.5c0-0.1,0-0.2,0-0.2c0,0,0,0,0-0.1
		c0,0-0.1,0.1-0.1,0.1c0,0.1,0,0.2,0,0.3c0,0.1,0,0.1,0,0.1C43.7,47.8,43.7,47.7,43.8,47.5L43.8,47.5z M43.9,54.3
		c0.1-0.2,0-0.3-0.1-0.4c-0.1,0-0.1,0.1-0.1,0.2c-0.1,0.6-0.1,1.1,0.1,1.5c0,0.1,0.1,0.1,0.1,0.2c0.1,0,0.1-0.1,0.1-0.3
		c0-0.1,0-0.2-0.1-0.5C43.9,54.5,43.9,54.3,43.9,54.3z M44,49.1c0,0,0-0.1,0-0.1c0-0.1,0-0.1,0-0.1c-0.1,0-0.1,0.1-0.1,0.2
		C43.9,49.2,44,49.2,44,49.1z M44.1,49.6L44.1,49.6c-0.1-0.3-0.1-0.3-0.2-0.2C43.9,49.6,43.9,49.6,44.1,49.6z M44.1,56.4L44.1,56.4
		c-0.1-0.5-0.2-0.6-0.2-0.6L44.1,56.4z M44.3,57.9c0.1,0.1,0.1,0.2,0,0.3L44.3,57.9z M44.8,58.8c0-0.1,0-0.1,0.1-0.2
		c0,0.4-0.1,0.7-0.2,0.8C44.6,59.2,44.6,59,44.8,58.8z M44.8,54.9c0,0,0,0.1,0,0.1c0,0,0,0.1,0,0.1c0,0,0,0,0,0L44.8,54.9L44.8,54.9
		z M45.5,27.6c0,0,0-0.1,0-0.1c0,0,0,0,0.1,0c0.1,0,0.1,0,0,0C45.6,27.5,45.6,27.5,45.5,27.6z M45.7,27.7
		C45.7,27.7,45.7,27.7,45.7,27.7L45.7,27.7z M45.7,31.9l0.2-0.3C45.8,31.7,45.7,31.8,45.7,31.9z M46.1,31.5L46.1,31.5l0.2-0.1l0,0
		L46.1,31.5z M46.4,30.9c0,0,0.1,0,0.1,0c0,0,0.1,0,0.2-0.1L46.4,30.9z M46.5,36.5C46.5,36.5,46.5,36.5,46.5,36.5l0,0.3
		C46.6,36.7,46.5,36.7,46.5,36.5C46.5,36.6,46.5,36.5,46.5,36.5z M46.7,37.7c0,0,0-0.1,0-0.1C46.7,37.6,46.7,37.6,46.7,37.7z
		 M46.8,40.2l0.1,0.2l0,0L46.8,40.2z M46.8,40.6C46.8,40.6,46.9,40.6,46.8,40.6l0.1,0.1C46.9,40.7,46.8,40.7,46.8,40.6z M46.9,41.7
		c0,0.1,0,0.2,0,0.2c0,0.1,0,0.1,0,0.2c0,0.1,0,0.1,0,0.1l0,0C46.9,41.9,46.9,41.7,46.9,41.7z M46.9,40.8c0,0,0,0.1,0,0.3
		C46.8,40.9,46.8,40.8,46.9,40.8z M47.1,44.7c0,0,0-0.1,0-0.4c0-0.3,0-0.5-0.1-0.7c0-0.2-0.1-0.3-0.1-0.3c0,0-0.1,0.2-0.1,0.4
		c0,0.3,0,0.5,0.1,0.7C47,44.6,47.1,44.7,47.1,44.7z M46.9,30.7l0.2-0.1l0,0C47.1,30.6,47.1,30.6,46.9,30.7z M47.3,45.6
		c-0.1-0.2-0.1-0.4-0.1-0.4C47,45.4,47.1,45.5,47.3,45.6z M47.3,46.1c0-0.1,0-0.2,0-0.3c0,0,0-0.1,0-0.1c-0.1,0-0.1,0.1-0.1,0.2
		L47.3,46.1z M47.4,46.7c-0.1,0.3-0.1,0.4,0,0.6c0,0,0-0.1,0-0.1c0-0.1,0-0.1,0-0.1C47.4,46.9,47.4,46.8,47.4,46.7z M47.6,57.8
		L47.6,57.8c0.2,0.1,0.2,0.1,0.2,0.2c-0.1,0.1-0.2,0-0.3-0.3c-0.1-0.3-0.2-0.5-0.2-0.6c0,0,0.1,0.1,0.1,0.3
		C47.5,57.6,47.6,57.7,47.6,57.8z M47.4,46.5c0,0,0-0.1,0-0.1C47.4,46.4,47.4,46.4,47.4,46.5z M47.7,44.7
		C47.7,44.6,47.7,44.6,47.7,44.7c0.1,0.1,0.1,0.1,0.1,0.1C47.7,44.8,47.7,44.8,47.7,44.7z M47.7,30.2c0.2-0.1,0.4-0.1,0.5-0.1
		c0.1,0,0.3-0.1,0.4-0.1c0.1-0.1,0.2-0.1,0.1-0.2c0,0-0.1,0-0.1,0c-0.1,0-0.2,0.1-0.3,0.2c-0.1,0.1-0.3,0.1-0.4,0.2
		C47.8,30.1,47.8,30.2,47.7,30.2z M47.9,46.2c0,0,0-0.1,0-0.1s-0.1-0.1-0.1-0.2c0-0.1,0-0.1,0-0.2c0,0,0,0,0.1,0.1
		c0,0.1,0,0.2,0,0.2C47.9,46.1,47.9,46.1,47.9,46.2z M47.8,46.4c0,0,0-0.1,0-0.1C47.9,46.3,47.9,46.3,47.8,46.4z M49.4,26.5
		c0,0.1-0.2,0.2-0.4,0.4c0,0,0,0-0.1,0.1c0,0-0.1,0-0.1,0c0.2-0.2,0.3-0.3,0.4-0.4S49.4,26.5,49.4,26.5z M48.9,29.5
		c0,0.2,0,0.2,0.1,0.1c0,0,0-0.1,0-0.1c0.1-0.1,0.1-0.1,0.1-0.1C49.1,29.4,49,29.5,48.9,29.5z M50.4,28.4c0.1,0,0.3,0,0.3,0l0.2-0.1
		L50.4,28.4C50.4,28.5,50.4,28.5,50.4,28.4z"/>
</g>
<g>
	<path class="st1" d="M51.6,73.8l0-0.3l0.1,0C51.7,73.5,51.7,73.6,51.6,73.8z M52.1,53.2C52.1,53.2,52.1,53.3,52.1,53.2
		c-0.1-0.1,0-0.2,0.2-0.4c0.1,0,0.1-0.1,0.1-0.1c0,0,0,0.1-0.1,0.1c0,0-0.1,0.1-0.1,0.1c0,0-0.1,0.1-0.1,0.1
		C52.2,53.1,52.2,53.2,52.1,53.2z M52.3,52c0,0.1,0,0.1-0.1,0.1L52.3,52z M73.4,17.8c0.1,0,0.2,0,0.3-0.2c0.1-0.1,0.2-0.2,0.3-0.2
		c-0.1,0-0.3,0.3-0.7,0.8c-0.3,0.6-0.6,1.1-0.8,1.7s-0.3,0.9-0.3,1c0,0,0,0,0.1-0.1c0-0.1,0.1-0.1,0.1-0.2s0.1-0.1,0.1-0.1
		c0.1,0.1,0,0.2-0.1,0.3c-0.1,0.1-0.3,0.2-0.4,0.3s-0.2,0.2-0.2,0.3l0,0l0.2-0.2c-0.1,0.1-0.3,0.5-0.6,1c-0.2,0.2-0.3,0.4-0.3,0.5
		l0,0c0,0-0.1,0.1-0.1,0.2l0,0c-0.1,0-0.2,0.1-0.2,0.3c-1.4,2.4-2,3.7-2,3.7c0,0,0.1-0.1,0.3-0.4c0,0,0,0,0,0.1
		c0,0.1-0.1,0.1-0.1,0.2c0,0.1,0,0.1,0,0.2c0.2,0,0.4-0.2,0.6-0.5c0.2-0.3,0.5-0.8,0.8-1.3c0.3-0.5,0.4-0.8,0.4-0.8
		c1-1.6,1.6-2.6,1.8-3c0,0,0,0.1,0,0.2c-0.1,0.1-0.1,0.3-0.2,0.4c0,0.1-0.1,0.2,0,0.2c0.1,0,0.1-0.1,0.2-0.4l0,0c0,0,0,0.1,0,0.3
		c0.1,0,0.2-0.2,0.3-0.4c0.1-0.2,0.2-0.3,0.2-0.4c0.1,0.3,0,0.7-0.2,1.2c-0.2,0.5-0.6,1.1-1,1.7c-0.4,0.6-0.6,1-0.7,1.1
		c0,0.1-0.2,0.3-0.4,0.8c-0.2,0.5-0.4,0.9-0.6,1.3C70.2,27.8,70.1,28,70,28c-0.2,0-0.4,0.2-0.6,0.5c-0.2,0.3-0.4,0.7-0.7,1.1
		c-0.2,0.4-0.4,0.7-0.4,0.7c-0.4,0.6-1,1.6-1.6,2.7c-0.7,1.2-1.2,2-1.4,2.4c-0.1,0.2-0.3,0.5-0.7,1.1c-0.3,0.5-0.6,0.9-0.7,1.2
		c0,0.1-0.2,0.4-0.4,0.9c-0.2,0.5-0.4,0.8-0.7,0.9c0.2,0.2,0.1,0.5-0.2,0.8l0.1,0.1c0,0-0.1,0-0.1-0.1c-0.1,0.1-0.2,0.2-0.3,0.3
		s-0.2,0.3-0.3,0.4c-0.1,0.1-0.2,0.2-0.3,0.3c-0.1,0.1-0.1,0.3-0.2,0.4c0,0.1,0,0.2,0,0.3c0,0,0.1-0.1,0.2-0.3
		c0.1-0.2,0.1-0.2,0.1-0.2c-0.2,0.5-0.4,0.9-0.5,1.1c-0.1,0.2-0.2,0.3-0.2,0.3l0-0.1c0-0.1,0-0.1,0-0.1c0,0-0.1,0-0.1,0
		c0,0.1,0,0.1,0.1,0.2c0.1,0,0.1,0.1,0,0.2c0,0.1-0.1,0.2-0.1,0.3c-0.1,0.1-0.1,0.2-0.1,0.3c-0.1,0.1-0.2,0.3-0.4,0.6
		c-0.2,0.2-0.3,0.4-0.4,0.6c0,0-0.1,0.1-0.2,0.3c-0.1,0.2-0.2,0.3-0.2,0.5c-0.1,0.1-0.1,0.3-0.2,0.5s-0.1,0.3-0.2,0.5s0,0.3,0,0.3
		c0,0,0.1-0.1,0.2-0.3c0.1-0.2,0.2-0.4,0.4-0.6c0.1-0.2,0.2-0.3,0.2-0.3c0,0-0.1,0.2-0.3,0.6c-0.2,0.4-0.5,0.8-0.7,1.2
		c-0.3,0.4-0.4,0.7-0.5,0.7c0.2,0.1,0.7,0.5,1.4,1.1c0.7,0.6,1.1,0.9,1.1,1c0,0-0.1,0-0.1,0c-0.1,0-0.1-0.1-0.2-0.1
		c-0.1,0-0.1-0.1-0.1,0c0,0,0,0.1,0.1,0.1c0.1,0.1,0.2,0.1,0.3,0.2c0.1,0.1,0.2,0.1,0.2,0.1c0.1,0.1,0.5,0.6,1.4,1.4
		c0.9,0.9,1.3,1.3,1.4,1.2c-0.1,0.1-0.2,0.1-0.3,0.1c0,0-0.1,0.1,0,0.1c0,0,0,0.1,0.1,0.1c0,0,0,0.1,0,0.1c0.1,0.1,0.2,0.2,0.5,0.4
		c0.2,0.1,0.3,0.2,0.4,0.2c0.1,0.1,0.3,0.3,0.6,0.6c0.3,0.3,0.5,0.5,0.5,0.5c0,0,0.2,0.2,0.4,0.4c0.2,0.2,0.5,0.5,0.8,0.7
		c0.3,0.3,0.6,0.5,0.8,0.8c0.3,0.3,0.6,0.6,0.9,1c0,0,0,0,0,0c-0.2-0.1-0.3-0.1-0.3-0.1c0,0.1,0.2,0.3,0.6,0.5
		c0.4,0.3,0.7,0.4,0.9,0.5c0,0.1,0.2,0.2,0.4,0.4s0.5,0.4,0.8,0.6c0.3,0.2,0.5,0.4,0.8,0.6s0.3,0.3,0.3,0.4c-0.1,0-0.3,0-0.6-0.3
		c-0.3-0.2-0.6-0.5-1-0.7c-0.3-0.3-0.5-0.4-0.6-0.5c-1.1-0.7-1.8-1.1-2-1.3c-0.8-0.7-1.2-1.1-1.4-1.2c0,0-0.2-0.2-0.4-0.4
		c-0.2-0.2-0.4-0.4-0.6-0.6c-0.2-0.2-0.3-0.2-0.4-0.2c0,0.1,0,0.2,0.1,0.3c0.1,0.1,0.2,0.3,0.3,0.4s0.2,0.2,0.4,0.4
		c0.2,0.2,0.3,0.3,0.4,0.4s0.3,0.2,0.4,0.3c0.1,0.1,0.2,0.2,0.3,0.2c0.7,0.6,1.7,1.4,2.9,2.3c1.6,1.2,2.7,1.9,3.2,2.3
		c1.4,0.9,2.2,1.6,2.5,2.1c-0.1-0.1-0.8-0.6-2-1.5c-0.2-0.1-0.6-0.4-1-0.7c-0.5-0.3-0.8-0.6-1.1-0.8c-0.8-0.6-1.4-1-1.8-1.3
		c0,0-0.2-0.2-0.5-0.4c-0.3-0.3-0.5-0.5-0.8-0.6c-0.2-0.2-0.4-0.2-0.6-0.2c0,0.2,0.3,0.4,0.9,0.7c0.6,0.3,0.9,0.5,0.9,0.7
		c-0.1,0.1,0,0.3,0.3,0.5c0.3,0.2,0.7,0.5,1.1,0.7c0.1,0,0.2,0.2,0.4,0.4c0.2,0.2,0.4,0.4,0.6,0.5c0.2,0.1,0.4,0.2,0.6,0.2
		c0.1,0.1,0.2,0.2,0.4,0.4s0.4,0.4,0.7,0.6s0.4,0.3,0.5,0.4c0.9,0.8,1.5,1.4,1.9,1.6c-0.3-0.1-0.5-0.1-0.7-0.1
		c-0.2-0.2-0.4-0.5-0.7-0.7c-0.3-0.2-0.5-0.3-0.7-0.3c0,0,0.2,0.1,0.6,0.5c0.4,0.3,0.8,0.7,1.1,1c0.4,0.3,0.6,0.5,0.6,0.5
		c0,0-0.1,0-0.2-0.1c-0.1-0.1-0.1-0.1-0.1-0.1c0,0,0,0.1,0.1,0.1c0.1,0.1,0.1,0.1,0.1,0.2c0,0.1,0,0.1,0,0.1c0,0-0.2,0-0.3-0.1
		s-0.3-0.2-0.5-0.3c-0.2-0.1-0.2-0.2-0.3-0.2c0-0.1-0.2-0.3-0.6-0.5c-0.4-0.2-0.6-0.3-0.7-0.2c0,0,0.1,0.1,0.1,0.1
		c0,0.1,0.1,0.1,0.1,0.1c-0.1,0.1-0.1,0-0.2-0.1c0-0.1-0.1-0.2-0.1-0.3c0-0.1-0.1-0.2-0.2-0.1l0.1,0.2c-0.1-0.1-0.3-0.2-0.6-0.4
		c0,0,0,0,0.1,0c-0.1-0.1-0.2-0.2-0.3-0.2c0,0-0.1,0-0.1,0c0,0,0,0.1,0.1,0.1c-1.8-1.2-2.7-1.8-2.8-1.7c0,0,0,0.1,0,0.1
		s0.1,0.1,0.1,0.1c0.1,0,0.1,0,0,0.1c0,0-0.1,0-0.3,0c-0.1,0-0.1,0-0.1,0.1c0,0,0.1,0.1,0.1,0.2c0,0,0.1,0.1,0.1,0.1
		c0.1,0,0.1,0.1,0.2,0.1c0.1,0,0.2,0.1,0.2,0.1c0.1,0.1,0.2,0.1,0.4,0.2c0.2,0.1,0.3,0.2,0.4,0.3c0.1,0,0.2,0.2,0.4,0.4
		s0.4,0.4,0.7,0.6c0.2,0.2,0.4,0.4,0.6,0.4c-0.2-0.1-0.3-0.1-0.3-0.1c0,0.1,0.1,0.1,0.3,0.2c0,0-0.1,0-0.1,0c0,0-0.1,0-0.1,0
		c0,0,0,0.1,0.1,0.1c0.1,0.1,0.2,0.1,0.3,0.2c-0.1,0-1.4-0.7-4-2l-0.2-0.1c-0.1-0.1-0.2-0.3-0.4-0.4c-0.2-0.1-0.4-0.3-0.6-0.4
		c-0.2-0.2-0.4-0.3-0.5-0.3c-0.1-0.1-0.3-0.3-0.7-0.6s-0.7-0.6-0.9-0.7c-0.1-0.1-0.3-0.3-0.6-0.6c-0.3-0.3-0.6-0.6-0.9-0.9
		c-0.3-0.3-0.6-0.5-0.8-0.7c-0.3-0.2-0.5-0.3-0.6-0.3c0-0.1-0.2-0.3-0.4-0.5s-0.4-0.3-0.5-0.2c0,0-0.1-0.1-0.1-0.2
		C62,58.5,62,58.3,62,58.3c-0.1,0.1-0.1,0.1-0.2,0.1s-0.1,0-0.1,0c0,0-0.1-0.1-0.1-0.1s0-0.1-0.1-0.1l-0.3-0.3l-0.1-0.1
		c-0.4-0.5-0.6-0.7-0.7-0.7l0.2,0.3c-0.1-0.1-0.2-0.1-0.2-0.2c-0.1-0.1-0.1-0.1-0.3-0.2c-0.1-0.1-0.2-0.2-0.3-0.3
		c0.1,0,0.2,0,0.2-0.1c0,0-0.1,0-0.2-0.1c-0.1,0-0.3-0.1-0.4-0.2c0,0-0.2-0.2-0.5-0.5c-0.5-0.6-0.8-0.9-0.9-1c0,0.1-0.1,0.2,0,0.3
		s0.1,0.2,0.1,0.4c-0.1,0-0.1,0-0.2-0.1c0,0.1,0,0.2,0.1,0.4c0,0.2,0,0.3,0,0.4c0,0.1,0,0.2,0,0.4c0,0.1-0.1,0.3-0.1,0.4
		c0.1,0,0.2,0.1,0.2,0.2c0,0.1,0.1,0.2,0.1,0.2c0,0.1,0,0.2,0,0.3s0,0.2-0.1,0.2c0,0.2,0,0.6,0,1c0,0.1,0,0.2-0.1,0.6
		c-0.1,0.3-0.1,0.6-0.1,0.9c0,0.3,0,0.4,0.1,0.5c0.1,0,0.1-0.2,0.1-0.4c0-0.2,0-0.4,0-0.4c0,0.7,0,1.3,0,1.7c0,0.4,0,0.5,0,0.5
		l0-0.1c0-0.1-0.1-0.1-0.1-0.2c-0.1,0.2-0.1,0.3,0,0.3c0.1,0,0.1,0,0.1-0.1c0,0.8,0,1.8-0.1,3.1c0,0.1,0,0.3-0.1,0.8
		c0-0.1,0-0.1-0.1,0c-0.1,0.1-0.1,0.2,0,0.2l0.1-0.1c-0.1,1.1,0,1.8,0.2,2c0-0.1,0.1-0.3,0.1-0.6c0-0.3,0.1-0.6,0.1-0.9
		s0.1-0.5,0.1-0.5c0,0-0.2,1.2-0.4,3.6c0,0.1,0,0.4,0,0.9s-0.1,1-0.1,1.3c-0.1,0.3-0.2,0.6-0.4,0.7c-0.1,0,0-0.4,0.1-1.1
		c0.1-0.7,0.3-1.4,0.4-2.1c0.1-0.7,0.2-1,0.1-1c-0.1,0-0.2,0.1-0.2,0.4c-0.1,0.3-0.1,0.7-0.2,1.2c-0.1,0.5-0.1,0.9-0.1,1.3
		s-0.1,1.1-0.2,2c-0.1,1.5-0.4,3-1,4.3c-0.1-0.1-0.1-0.4,0-0.8c0.1-0.4,0-0.7-0.1-0.8c-0.2,0.2-0.4,0.7-0.4,1.6c0-0.1,0-0.2,0-0.3
		c0-0.1,0-0.1,0-0.1c-0.1,0.1-0.2,0.4-0.3,0.8l0,0.1c0,0-0.1,0.1-0.3,0.1c-0.1,0-0.2,0.1-0.3,0.1c0,0.1-0.1,0.2-0.2,0.6
		c-0.1,0.3-0.2,0.7-0.3,1.3c-0.1,0-0.1-0.2-0.1-0.4c0-0.2,0-0.4,0-0.7c0-0.3,0-0.4,0-0.4c0-0.2-0.1-0.4-0.2-0.7
		c-0.1-0.3-0.1-0.5-0.2-0.7c0-0.2-0.1-0.5-0.1-0.8c0-0.3,0-0.6-0.1-0.9c0-0.2-0.1-0.5-0.2-0.7c0.1,0,0.1,0,0.1,0.1
		c0.1-0.1,0.1-0.3,0.1-0.5c0-0.2,0-0.4,0-0.6s0-0.4,0-0.6c0-0.2,0-0.4,0-0.6c0-0.2,0-0.4,0-0.5c0,0,0-0.1,0-0.2s0-0.2,0-0.3
		c0-0.1,0-0.2,0-0.4c0-0.1,0-0.3,0-0.4c0-0.1,0-0.3,0-0.4c0-0.2,0-0.3,0-0.4c0-0.1,0-0.2,0-0.3s0-0.2,0-0.2s0-0.1-0.1-0.1
		c-0.1,0-0.1,1.1-0.1,3.2c0,0.3-0.1,0.9-0.3,1.7c0,0.1,0,0.3,0,0.8c0,0.5,0,0.9,0,1.3c0,0.4-0.1,0.6-0.2,0.7c-0.1,0-0.1-0.1-0.1-0.4
		c0-0.3,0.1-0.6,0.1-0.9c0-0.3,0-0.5,0-0.5L53,75.7c0-0.1,0-0.2,0-0.3c0,0-0.1,0.2-0.1,0.4s0,0.5,0,0.8c0,0.3,0,0.4-0.1,0.5
		c-0.1-0.1-0.2-0.2-0.2-0.4c0-0.2-0.1-0.4-0.1-0.6c0-0.2,0-0.4,0-0.6c0-0.3,0-0.5,0-0.7c0-0.2,0-0.4,0-0.6c0-0.2,0-0.4,0.1-0.5
		c0-0.1,0-0.2,0-0.4c0-0.2,0-0.3,0-0.4c0-0.1,0-0.3,0-0.4c0-0.1,0-0.4,0-1c0-0.6,0-1.2,0-1.7c0-0.5,0.1-0.8,0.1-0.9c0,0,0,0,0.1,0.2
		c0,0.1,0,0.3,0,0.4c0,0.1,0,0.2,0,0.2c0,0,0-0.3,0-0.8s0-1.1,0.1-1.7c0-0.6,0-1,0.1-1.1c0-0.1,0-0.6,0.1-1.6s0.1-1.9,0.1-2.7
		c0-0.8,0-1.3-0.1-1.3c0.2,0.1,0.3,0.2,0.3,0.5l0-0.1c0-0.1,0.1-0.3,0.1-0.4c0-0.2,0-0.7,0-1.6c0-0.3,0-0.7,0-1.3
		c0-0.6,0.1-1,0.1-1.3c0-0.4,0-1.2,0-2.5s0-2.2,0-2.9c0,0-0.1,0.1-0.2,0.4c-0.1,0.3-0.2,0.5-0.3,0.5c0,0,0-0.3,0.2-0.7
		c0.2-0.4,0.2-0.6,0.2-0.6L53,50.6l0-0.1l0-0.1c-0.1,0-0.1,0.1-0.2,0.3c-0.1,0.2-0.1,0.4-0.2,0.6c-0.1,0.2-0.1,0.3-0.2,0.4
		c0-0.1-0.1-0.2-0.1-0.4c0-0.2,0-0.3,0-0.5c0-0.2,0.1-0.3,0.1-0.5c0.1-0.2,0.1-0.4,0.2-0.5c0.1-0.2,0.1-0.3,0.2-0.5
		C53,49.1,53,49,53,48.9c0-0.1,0-0.3,0.1-0.7c0-0.4,0.1-0.7,0.1-1c0-0.3,0.1-0.5,0.1-0.5c0,0.1,0,0.2,0,0.4c0,0.2,0.1,0.2,0.1,0.2
		c0,0,0.1-0.1,0.1-0.2c0-0.1,0-0.3,0-0.5c0-0.2,0-0.4,0-0.6c0-0.2,0-0.4,0-0.6c0-0.2,0-0.4-0.1-0.5c0-0.2,0-0.3,0-0.3
		c0-0.2,0-0.4-0.1-0.6s-0.1-0.4-0.1-0.6c0-0.2,0-0.4-0.1-0.6c0-0.2,0-0.5,0-0.8c0-0.3,0-0.6,0-0.9c0-0.3,0-0.6,0-0.8
		c0,0,0-0.1,0-0.4c0-0.2,0-0.4-0.1-0.7c0-0.2,0-0.5-0.1-0.7c0-0.3,0-0.5,0-0.6s0.1-0.3,0.1-0.3c0.1,0.1,0.2,0.3,0.2,0.5
		c0,0.3,0,0.5,0,0.7c0,0.2,0,0.5,0,0.8c0,0.3,0,0.5,0,0.6c0,0.2,0,0.4,0.1,0.7c0,0.3,0.1,0.5,0.1,0.8c0,0.3,0,0.5,0.1,0.7
		c0,0.2,0,0.6,0,1.2s0,0.9,0,1.1c0,0.2,0,0.4,0.1,0.7c0,0.3,0.1,0.6,0.1,0.8c0,0.2,0,0.4,0,0.6c0.1-0.3,0.2-0.6,0.2-0.9
		c0-0.3,0.1-0.6,0.1-1c0-0.4,0-0.7,0-0.8c0-0.2,0-0.5,0-1c0-0.5,0-0.8-0.1-0.9c-0.1-2.7-0.2-4.5-0.2-5.3c-0.1-3.4-0.2-5.8-0.2-7.1
		c0-1.4,0-2,0.1-2.1c0,0.1,0.1,0.2,0.1,0.3c0,0.1,0,0.3,0,0.4c0,0.2,0,0.3,0,0.5c0,0.2,0,0.4,0,0.5c0,0.2,0,0.3,0,0.5
		c0,0.1,0,0.3,0,0.3c0,0.1,0,0.3,0,0.6c0,0.3,0,0.6,0,0.7c0.1,2.1,0.2,3.7,0.2,4.9c0,0.4,0.1,0.9,0.1,1.4c0,0.5,0,1,0.1,1.6
		c0,0.6,0,1.1,0,1.4c0,0.3,0.1,0.7,0.1,1.2c0-0.1,0-0.1,0.1-0.1c0,0,0,0.1,0,0.1c0,0,0,0.1,0,0.1c0,0,0,0.1,0.1,0.1c0,0,0-0.6,0-1.7
		s-0.1-1.9,0-2.2c-0.2-2.8-0.3-4.8-0.2-5.8c0.1-2.2,0-4.4-0.3-6.6c0,0,0.1,0.3,0.2,0.8c0.1,0.5,0.2,0.8,0.2,0.9c0,0.1,0,0.2,0,0.4
		c0,0.2,0,0.3,0,0.5c0,0.1,0,0.3,0,0.5s0,0.4,0.1,0.4s0.1,0.2,0.1,0.4s0.1,0.3,0.2,0.3c0.1-0.1,0.1-0.2,0.1-0.4c0-0.2,0-0.4-0.1-0.6
		c0-0.2-0.1-0.4-0.1-0.7s-0.1-0.4-0.1-0.5c0-0.2-0.1-0.4-0.1-0.7s0-0.5-0.1-0.7c0-0.1,0-0.1-0.1-0.2c0-0.1-0.1-0.2-0.1-0.2
		c0-0.1,0.1-0.6,0.3-1.3l0,0c0.1,0,0.2-0.1,0.2-0.3s0.1-0.2,0.2-0.3c0.2-0.1,0.3-0.1,0.4,0c-0.5,0.5-0.6,1.3-0.4,2.4
		c0,0.2,0.1,0.5,0.1,0.8c0,0.3,0.1,0.6,0.1,0.9c0,0.3,0.1,0.5,0.1,0.8c0.1,0.1,0.2-0.1,0.2-0.6c0,0,0.1,0.2,0.1,0.4
		c0,0.3,0,0.4,0,0.5c-0.1-0.1-0.2,0-0.2,0.3c0,0.1,0,0.2,0,0.3c0,0,0-0.1,0-0.1c0,0.2,0.1,0.6,0.2,1.2c0,0,0,0,0-0.1
		c0,0.2-0.1,0.5,0,0.8l0,0c0.1-0.1,0.1-0.3,0.1-0.5c0.1,0.4,0.1,0.6,0.1,0.7c0,0.4,0.1,0.9,0.1,1.8c0,0,0,0.5,0,1.3
		c0,0.8,0,1.5,0.1,2.2c0,0.6,0.1,1,0.2,1l0-0.5c0-0.1,0-0.2,0-0.1c0,0,0,0,0.1,0.1c0,0.1,0,0.1,0,0.2c0,0.1,0,0.1,0,0.2
		c0,0.1,0,0.1,0.1,0.1c0.2-0.2,0.3-0.6,0.3-1.1c0-0.6-0.1-1.2-0.2-2c-0.1-0.7-0.1-1.2-0.2-1.3c0-1.6-0.1-3.1-0.2-4.6
		c0.1,0,0.1,0.1,0.1,0.3s0.1,0.4,0.1,0.6c0,0.2,0.1,0.3,0.1,0.3c0,0,0-0.2-0.1-0.6c0,0,0.1,0,0.1,0.2l0,0.1c0.1-0.1,0.1-0.2,0.1-0.4
		c0-0.2,0-0.3-0.1-0.5c0-0.2,0-0.3,0-0.3c0.1,0.1,0.2,0.3,0.3,0.6c0.1,0.3,0.1,0.5,0.1,0.7c0,0.2,0,0.5,0,0.9c0,0.4,0,0.6,0,0.7
		c0,0.2,0.1,1.4,0.3,3.3c0,0.2,0.1,0.7,0.2,1.3c0.1,0.6,0.2,1.2,0.2,1.7c0,0.5,0,0.9-0.1,1.2c0.1-0.2,0.1-0.2,0.1-0.3
		c-0.1,0.4-0.1,0.8,0,1c0.1,0,0.3-0.4,0.6-1.2c0-0.1,0.1-0.2,0.2-0.3c0.1-0.1,0.1-0.2,0.2-0.3c0.1-0.1,0.2-0.2,0.2-0.3
		c0.1-0.1,0.2-0.4,0.5-0.9c0.2-0.5,0.5-0.8,0.6-1.1c0-0.1,0.3-0.5,0.8-1.4c0.5-0.9,1-1.7,1.4-2.4c0.4-0.7,0.7-1.1,0.8-1l0,0
		c-0.2,0.3-0.2,0.4-0.1,0.4c0.1,0,0.1-0.1,0.3-0.3c0.1-0.2,0.3-0.4,0.4-0.7c0.2-0.3,0.3-0.5,0.5-0.8c0.1-0.3,0.3-0.5,0.4-0.8
		c0.1-0.3,0.2-0.4,0.2-0.4c1.3-2.3,2-3.4,2.2-3.3c0,0.1,0,0.3-0.2,0.6c-0.2,0.3-0.3,0.6-0.5,0.9s-0.4,0.6-0.6,0.9
		c-0.2,0.3-0.4,0.5-0.4,0.6c-0.3,0.5-0.7,1.2-1.3,2.3c-0.6,1-1,1.8-1.3,2.3c-0.1,0.1-0.2,0.4-0.5,0.8c-0.3,0.4-0.5,0.8-0.6,1
		c0,0.1-0.1,0.2-0.3,0.6c-0.2,0.3-0.4,0.7-0.5,0.9c-0.1,0.3-0.2,0.5-0.2,0.6c0.2-0.1,0.5-0.4,0.8-0.8c0.3-0.4,0.6-0.9,0.9-1.5
		c0.3-0.6,0.5-1,0.6-1c0.1-0.1,0.5-0.8,1.2-1.9c0.7-1.2,1.4-2.4,2.2-3.7c0.8-1.3,1.6-2.6,2.4-3.9c0.8-1.3,1.5-2.4,2.1-3.3
		c0.6-0.8,0.9-1.3,0.9-1.2c0,0.1,0,0.2-0.1,0.4c-0.1,0.2-0.2,0.4-0.4,0.6c-0.2,0.2-0.3,0.4-0.4,0.6c-0.1,0.2-0.3,0.4-0.4,0.6
		c-0.1,0.2-0.2,0.3-0.3,0.4c-1.2,1.9-1.9,3.1-2.1,3.4c-0.2,0.4-0.6,0.9-1,1.6c-0.4,0.7-0.7,1.2-0.9,1.5c0,0-0.1,0.1-0.1,0.2
		c0.1-0.1,0.2-0.1,0.2-0.1c0,0,0,0.1,0.1,0.2l0.1,0c0-0.1,0.1-0.1,0.1-0.2c0.1-0.1,0.2-0.3,0.3-0.5c0.1-0.2,0.2-0.4,0.3-0.5
		c0-0.1,0.1-0.2,0.2-0.3c0.1-0.1,0.1-0.2,0.2-0.3c0-0.1,0.1-0.2,0.2-0.3s0.1-0.2,0.2-0.2c0.1-0.2,0.3-0.5,0.5-0.7
		c0.2-0.3,0.3-0.5,0.5-0.8c0.2-0.2,0.3-0.5,0.5-0.7s0.3-0.5,0.5-0.8s0.3-0.5,0.5-0.7c0.4-0.7,1.3-2.1,2.6-4.2
		c-0.1,0.3-0.1,0.6,0,0.7c-0.1,0.1-0.3,0.3-0.5,0.6c-0.2,0.3-0.3,0.6-0.5,0.9c-0.1,0.3-0.2,0.5-0.1,0.7c0.1,0,0.2-0.1,0.3-0.3
		c0.1-0.2,0.2-0.4,0.3-0.7c0.1-0.3,0.2-0.4,0.2-0.5c0.1-0.2,0.4-0.6,0.9-1.3c0.5-0.7,0.8-1,0.8-0.9c0,0,0,0.1-0.1,0.2
		C73.5,17.7,73.4,17.8,73.4,17.8z M52.5,78.1c0,0.1,0,0.2,0,0.2C52.4,78.3,52.4,78.2,52.5,78.1z M52.7,79.3c0-0.1,0-0.2,0-0.3
		c0-0.1,0.1-0.2,0.2-0.2c0.1-0.1,0.1-0.2,0.1-0.3c0,0,0,0.1,0,0.1s0,0.1,0,0.2c0,0.1,0,0.1-0.1,0.2C52.8,79.3,52.7,79.3,52.7,79.3z
		 M52.6,68c0,0,0,0.3,0,0.8L52.6,68z M52.7,77.7c0.1,0.1,0.1,0.2,0,0.2L52.7,77.7L52.7,77.7z M52.7,50.9c0.1,0,0.1-0.1,0.1-0.2
		c0-0.1,0-0.2,0-0.3L52.7,50.9L52.7,50.9z M52.9,76c0.1-0.2,0.1-0.3,0-0.5c-0.2-0.1-0.2-0.1-0.1,0.1C52.8,75.9,52.9,76,52.9,76z
		 M53.1,73.8c0.1-0.2,0.1-0.3,0-0.4c0,0-0.1,0.1-0.2,0.4c-0.1,0.3-0.1,0.6-0.2,1c0,0.3,0,0.5,0.1,0.6c0,0,0.1-0.1,0.1-0.2
		c0-0.1,0.1-0.3,0.1-0.6C53,74,53,73.8,53.1,73.8z M52.8,70.5c0,0.2,0.1,0.3,0,0.3C52.8,70.7,52.8,70.6,52.8,70.5z M52.9,70.2
		c0.1-0.1,0.1-0.2,0-0.3l0,0.4L52.9,70.2L52.9,70.2z M52.9,56.6c0,0.1,0,0.2,0,0.3c0,0.1,0,0.1,0,0.2c0,0.1,0,0.1,0,0.1
		c-0.1-0.2-0.1-0.3-0.1-0.4C52.8,56.7,52.8,56.7,52.9,56.6z M53,59.8c0-0.1,0-0.2-0.1-0.3c0-0.2-0.1-0.3-0.1-0.5c0-0.1,0-0.2,0-0.3
		c0,0.3,0.1,0.5,0.1,0.7S53,59.7,53,59.8z M53,57.7c-0.1,0-0.1,0-0.1,0l0-0.3c0,0,0,0.1,0.1,0.1S53,57.6,53,57.7z M52.9,58.1
		c0,0.1,0.1,0.1,0,0.1C52.9,58.2,52.9,58.2,52.9,58.1z M53,59.8C53,59.8,53,59.9,53,59.8C53,59.9,53,59.8,53,59.8z M53.3,49
		c0,0-0.1,0-0.1,0.1s0,0.1-0.1,0.1c0,0,0,0.1,0,0.2c0,0.1,0,0.1,0,0.2c0,0.1,0,0.1,0,0.2s0,0.1,0,0.2c0,0.1,0,0.1,0,0.1
		c0,0,0,0.1,0,0.1C53.3,49.8,53.4,49.4,53.3,49z M53.1,42.4c0.1,0,0.1,0.2,0.1,0.7L53.1,42.4z M53.2,71.2l0-0.4
		C53.1,71,53,71.1,53.2,71.2C53.2,71.3,53.2,71.2,53.2,71.2z M53.2,72c0-0.1,0-0.2,0-0.2l-0.1,0.4C53.2,72.1,53.2,72.1,53.2,72z
		 M53.2,71.6c0.1-0.2,0-0.2-0.1-0.2C53.1,71.5,53.2,71.6,53.2,71.6z M53.2,70.3c0-0.1,0-0.2,0-0.2L53.2,70.3L53.2,70.3z M53.2,37.3
		c-0.1,0.1-0.1,0-0.1-0.2c0-0.1,0,0,0,0C53.2,37.2,53.2,37.2,53.2,37.3L53.2,37.3z M53.4,65.5c0-0.1,0-0.1-0.1-0.1
		c-0.1-0.1-0.1,0-0.1,0.1l0.1,0.1C53.3,65.6,53.4,65.6,53.4,65.5z M53.2,68.9c0,0,0,0.1,0,0.2c0,0.1,0,0.2,0,0.4c0,0,0-0.1,0-0.2
		L53.2,68.9z M53.3,68c0,0,0-0.1,0-0.2c0-0.1,0-0.3,0-0.5C53.2,67.4,53.2,67.6,53.3,68C53.3,68,53.3,68,53.3,68z M53.3,61.7
		c-0.1,0.1-0.1,0.1,0,0.2c0.1-0.3,0-0.5-0.1-0.5c0,0,0,0.1,0,0.1C53.2,61.6,53.3,61.6,53.3,61.7C53.3,61.7,53.3,61.7,53.3,61.7z
		 M53.3,65.2C53.4,65.3,53.4,65.3,53.3,65.2c0.1-0.1,0.1-0.2,0-0.2C53.3,65,53.2,65,53.3,65.2C53.3,65.2,53.3,65.2,53.3,65.2z
		 M53.3,66.4l0.1,0.1C53.3,66.5,53.3,66.5,53.3,66.4L53.3,66.4z M53.4,46.4l-0.1-0.2l0,0L53.4,46.4z M53.4,64.5L53.4,64.5
		c0-0.2,0-0.2-0.1-0.2c0,0,0,0-0.1,0.1C53.3,64.5,53.3,64.6,53.4,64.5C53.3,64.6,53.4,64.5,53.4,64.5z M53.3,66L53.3,66
		C53.3,66,53.4,66,53.3,66z M53.8,74.6c0,0.1,0,0.2,0,0.3C53.7,74.9,53.7,74.8,53.8,74.6z M53.8,25.9l0-0.1
		C53.8,25.7,53.8,25.8,53.8,25.9C53.8,25.8,53.8,25.8,53.8,25.9z M54,50.4c0.1-0.2,0.2-0.4,0.3-0.7s0.1-0.6,0.1-0.8
		c0,0.2-0.1,0.4-0.3,0.7c-0.2,0.3-0.2,0.5-0.1,0.7c0-0.1,0-0.1,0.1-0.1c0,0.1,0,0.2-0.1,0.3C53.9,50.4,54,50.4,54,50.4z M53.9,48
		l0.2-0.2l0,0L53.9,48z M53.9,50.5c0,0.1,0,0.2,0,0.4L53.9,50.5z M54,46.7c-0.1,0.1-0.1,0.2,0,0.2C54,46.9,54,46.8,54,46.7z
		 M54.2,68.9L54.2,68.9c-0.1-0.2-0.1-0.3-0.2-0.2C53.9,68.8,54,68.9,54.2,68.9z M54.1,47.6c0.1-0.1,0.1-0.1,0-0.1
		C54,47.6,54,47.7,54.1,47.6C54,47.7,54,47.7,54.1,47.6z M54.1,68.4c0,0,0-0.1,0-0.1c0-0.1,0-0.1,0-0.1C54,68.2,54,68.2,54.1,68.4
		C54.1,68.4,54.1,68.4,54.1,68.4z M54.4,53.3c0-0.1,0-0.2,0-0.1c-0.1,0.1-0.2,0.3-0.3,0.6c-0.1,0.6,0,0.9,0.1,1.1
		c0.1-0.1,0.1-0.3,0.1-0.5s0-0.4,0-0.6C54.3,53.6,54.3,53.4,54.4,53.3z M54,46.6l0.2-0.2c0-0.1,0-0.1,0-0.1
		C54.1,46.4,54,46.5,54,46.6z M54.2,66.6C54.2,66.6,54.2,66.5,54.2,66.6l0.1-0.1c0-0.1,0-0.2,0-0.2c0,0-0.1,0-0.1,0.1
		c0,0.1,0,0.2,0,0.3c0,0.1,0,0.2,0,0.2c0,0,0,0,0.1-0.1C54.1,66.7,54.2,66.7,54.2,66.6z M54.3,56l0.1-0.2c0-0.3-0.1-0.4-0.2-0.4
		l-0.1,0.2c0,0,0,0.2,0,0.4c0,0.3,0.1,0.4,0.1,0.4c0.1-0.1,0.1-0.1,0.1-0.2C54.2,56.1,54.2,56,54.3,56z M54.2,65.8
		c0-0.1,0-0.2-0.1-0.2C54.1,65.8,54.1,65.9,54.2,65.8z M54.1,47.4c0.1-0.1,0.2-0.2,0.2-0.3c0,0-0.1-0.1-0.1,0
		C54.1,47.2,54.1,47.3,54.1,47.4z M54.2,26.3l-0.1-0.4l0,0C54.2,25.9,54.2,26,54.2,26.3z M54.3,64.4c0,0,0-0.1,0-0.1
		c0-0.2,0-0.3-0.2-0.3C54.1,64.4,54.1,64.5,54.3,64.4C54.3,64.5,54.3,64.5,54.3,64.4z M54.3,65.4c-0.1-0.1-0.1-0.2-0.1-0.3
		c-0.1,0.2-0.1,0.3,0,0.4C54.2,65.6,54.3,65.5,54.3,65.4z M54.1,59.9c0.1,0.1,0.1,0.1,0.2-0.1l0-0.1l0,0
		C54.2,59.8,54.2,59.9,54.1,59.9z M54.1,57.1c0,0.1,0.1,0.1,0.2,0c0,0,0-0.1-0.1-0.2c0-0.1-0.1-0.1-0.1-0.1L54.1,57.1z M54.3,61.2
		c0-0.1-0.1-0.1-0.2-0.2C54.1,61.1,54.2,61.1,54.3,61.2z M54.3,60.7c0,0,0-0.1,0-0.2c0-0.1,0-0.2,0-0.2c-0.1-0.2-0.2-0.2-0.2,0.1
		C54.1,60.5,54.2,60.6,54.3,60.7z M54.3,62.3c0-0.1,0-0.2,0-0.3c-0.1,0.1-0.1,0.3-0.1,0.8c0,0.4,0,0.7,0.1,0.8
		c0.1,0,0.1-0.1,0.2-0.3c0-0.2,0-0.4,0-0.6S54.3,62.3,54.3,62.3z M54.2,58.8c0.1,0.1,0.2,0,0.2-0.2c0-0.1-0.1-0.2-0.1-0.2
		c0,0.1,0,0.1,0,0.1s0,0.1,0,0.1C54.2,58.7,54.2,58.7,54.2,58.8z M54.2,65c0.1,0,0.1-0.1,0-0.2C54.2,64.9,54.2,65,54.2,65z
		 M54.2,63.7c0.1-0.1,0.1-0.1,0-0.1C54.2,63.7,54.2,63.7,54.2,63.7z M54.4,41.7L54.4,41.7c0-0.2,0-0.2,0-0.3L54.4,41.7L54.4,41.7z
		 M54.3,41.1l0-0.3C54.4,40.8,54.4,41,54.3,41.1z M54.5,43.8c0,0.5,0,1-0.1,1.3C54.5,44.8,54.5,44.4,54.5,43.8z M54.5,42.6
		c0.1-0.1,0.1-0.2,0-0.3c0,0,0,0-0.1,0L54.5,42.6z M54.5,43.7c0.1-0.6,0.1-0.9,0-1c0,0,0,0.1,0,0.3l0,0.2c0,0.1-0.1,0.2,0,0.3l0,0
		C54.4,43.6,54.5,43.6,54.5,43.7z M54.5,44.9c-0.1,0.2-0.1,0.5-0.1,0.8C54.5,45.5,54.6,45.2,54.5,44.9z M54.5,24.6
		c0-0.1,0-0.2,0.1-0.3C54.6,24.3,54.5,24.4,54.5,24.6z M54.5,48.4c0.1,0.2,0.2,0.1,0.1-0.3C54.6,48.3,54.6,48.4,54.5,48.4z
		 M54.6,24.2c0-0.1,0-0.1,0-0.2c0,0,0-0.1,0.1-0.2C54.7,24,54.7,24.1,54.6,24.2z M54.7,31.2c-0.1,0.2,0,0.3,0.1,0.4c0,0,0-0.2,0-0.7
		c-0.1-0.4-0.1-0.6-0.1-0.7c0,0.1,0,0.2,0,0.5C54.6,30.9,54.7,31.1,54.7,31.2z M54.8,31.8c0,0,0,0.1,0,0.1c0,0.1,0,0.1,0.1,0.1
		c0.1-0.2,0.1-0.3,0-0.4c0,0,0,0-0.1,0C54.8,31.7,54.8,31.7,54.8,31.8z M55.5,29.3c0,0,0,0.1,0,0.4C55.4,29.4,55.4,29.3,55.5,29.3z
		 M55.6,32c0,0,0,0.1,0,0.1c0,0.1,0,0.1,0,0.1c0,0,0,0.1,0.1,0.1c0-0.3,0-0.5,0-0.5L55.6,32z M55.6,30.8c0,0,0,0.1,0,0.2
		C55.6,31,55.6,31,55.6,30.8C55.6,30.9,55.6,30.9,55.6,30.8z M56,78.6c-0.2-0.3-0.2-0.7-0.2-1.1c0,0,0,0.1,0,0.3
		c0.1,0.2,0.1,0.4,0.1,0.6C56,78.6,56,78.6,56,78.6z M56,27.9l0.1,0.7c-0.1,0-0.1-0.1-0.1-0.4C55.9,28.1,55.9,28,56,27.9z M56.2,39
		c0,0,0-0.1,0-0.1C56.2,38.9,56.2,38.9,56.2,39z M56.4,29.3c-0.1-0.1-0.1-0.1,0-0.1C56.4,29.2,56.4,29.2,56.4,29.3z M56.4,30.8
		L56.4,30.8l0-0.7c0,0,0,0.1,0,0.1c0,0,0,0.1,0,0.2c0,0.1,0,0.1,0,0.2s0,0.1,0,0.1C56.4,30.8,56.4,30.8,56.4,30.8z M56.4,28.5
		c0-0.1,0-0.1,0-0.2C56.4,28.3,56.4,28.4,56.4,28.5z M56.4,31.7c-0.1,0.2-0.1,0.4,0.1,0.5c0-0.1,0.1-0.3,0.1-0.6
		c0-0.3,0-0.5-0.1-0.5c0,0-0.1,0-0.1,0.1c0,0.1,0,0.2,0,0.3C56.4,31.7,56.4,31.7,56.4,31.7z M56.5,32.7c0,0.1,0,0.1,0,0.2
		c0,0.1,0,0.1,0,0.1C56.6,32.9,56.6,32.8,56.5,32.7z M57.7,72.5C57.8,72.5,57.8,72.5,57.7,72.5c0,0.1,0,0.2-0.1,0.2
		c-0.1-0.3-0.1-0.4-0.1-0.4C57.6,72.3,57.7,72.4,57.7,72.5z M57.8,41.5c0.1-0.1,0.1-0.2,0.1-0.2c-0.2,0.1-0.3,0.3-0.2,0.6
		c0,0,0,0,0.1-0.1c0-0.1,0-0.1,0-0.2C57.7,41.6,57.8,41.5,57.8,41.5z M57.6,38.8c0-0.2,0.1-0.3,0.2-0.3
		C57.7,38.4,57.7,38.6,57.6,38.8z M57.8,66.9c0-0.1,0.1-0.3,0.1-0.5C57.7,66.6,57.7,66.8,57.8,66.9z M58.1,62.8
		c0.1-0.2,0-0.3-0.1-0.4c-0.1,0-0.1,0.2-0.2,0.4c0,0.3,0,0.5,0,0.8c0,0.3,0.1,0.4,0.1,0.4c0,0,0-0.1,0.1-0.3c0-0.2,0-0.4,0.1-0.6
		C58.1,63,58.1,62.9,58.1,62.8z M57.9,65c0-0.3,0-0.4,0-0.5C57.8,64.8,57.8,64.9,57.9,65z M57.9,65.6c0-0.1,0-0.2,0-0.3
		c0,0,0-0.1-0.1-0.1c-0.1,0-0.1,0-0.1,0.1L57.9,65.6z M57.9,49.5C57.9,49.5,58,49.5,57.9,49.5c0.1,0,0.1-0.1,0.1-0.1c0,0,0,0,0.1,0
		c0,0,0-0.1,0.1-0.1c0,0,0.1-0.1,0.1-0.1c0,0,0,0,0-0.1c0-0.1,0-0.1-0.1-0.1c0,0.1-0.1,0.2-0.1,0.3C57.9,49.4,57.9,49.4,57.9,49.5z
		 M58.1,61.4c0.1-0.3,0.1-0.5,0-0.6c-0.2-0.1-0.2,0-0.1,0.3L58.1,61.4L58.1,61.4z M57.9,66c0,0,0-0.1,0-0.1C57.9,66,58,66,57.9,66z
		 M58,38c0,0,0,0.1-0.1,0.1C57.9,38.1,58,38.1,58,38z M58.2,40.8c0.1-0.1,0.1-0.1-0.1-0.2C58.1,40.7,58.1,40.8,58.2,40.8z
		 M58.1,49.6c0.1,0,0.1,0,0.3,0.1c0.1,0.1,0.3,0.2,0.4,0.4c0.2,0.1,0.3,0.3,0.5,0.4c0.1,0.1,0.3,0.3,0.4,0.4s0.2,0.2,0.3,0.2
		c0,0-0.1-0.1-0.4-0.3s-0.4-0.4-0.4-0.4c-0.4-0.3-0.6-0.5-0.6-0.5c0-0.1-0.1-0.2-0.1-0.3c0-0.2-0.1-0.3-0.1-0.3
		C58.3,49.2,58.2,49.3,58.1,49.6z M58.1,59.1l0.1,0.2l-0.1,0.1C58.2,59.4,58.2,59.3,58.1,59.1z M58.2,59.7c0,0-0.1,0-0.1-0.2
		c0,0,0,0,0,0C58.2,59.5,58.2,59.6,58.2,59.7z M58.2,37.8c-0.1,0-0.1,0,0-0.1l0.1-0.1c0,0,0,0,0,0.1S58.3,37.7,58.2,37.8z
		 M58.2,55.3C58.2,55.3,58.2,55.3,58.2,55.3C58.2,55.4,58.2,55.4,58.2,55.3z M58.5,55.6c0,0-0.1,0-0.1,0l-0.1-0.2
		C58.4,55.6,58.4,55.6,58.5,55.6z M58.3,48.6C58.3,48.6,58.3,48.6,58.3,48.6l0.1,0.1L58.3,48.6z M58.3,55.1
		C58.3,55,58.3,55,58.3,55.1c0.1,0.1,0.1,0.2,0,0.2C58.3,55.3,58.3,55.2,58.3,55.1L58.3,55.1z M58.3,56.3c0,0,0-0.1,0-0.2
		C58.3,56.2,58.3,56.3,58.3,56.3z M58.4,54.5C58.3,54.6,58.3,54.6,58.4,54.5c-0.1,0.1-0.1,0.2,0,0.2c0.2,0.2,0.2,0.2,0.1,0
		C58.4,54.6,58.4,54.6,58.4,54.5z M58.3,40.4c0,0,0.1-0.1,0.2-0.4c0-0.1-0.1,0-0.2,0.1C58.3,40.3,58.3,40.4,58.3,40.4z M58.4,37.5
		c-0.1,0-0.1-0.1,0-0.2l0.2-0.3C58.6,37.1,58.5,37.2,58.4,37.5z M58.4,48.5c-0.1,0-0.1,0.1,0,0.1c0,0,0.1,0,0.1,0L58.4,48.5
		C58.5,48.5,58.4,48.5,58.4,48.5z M58.4,65.8c0.1,0.1,0,0.1,0,0.2C58.4,65.9,58.4,65.9,58.4,65.8z M58.5,65.7
		c-0.1-0.3-0.1-0.5,0-0.5c0,0.2,0,0.3,0,0.4C58.5,65.7,58.5,65.7,58.5,65.7z M58.5,64.2c0,0-0.1,0-0.1-0.1c0,0,0,0,0,0
		C58.5,64.1,58.5,64.2,58.5,64.2z M58.6,55C58.6,55,58.6,55,58.6,55c0.1-0.1,0-0.2-0.1-0.2C58.5,55,58.5,55,58.6,55z M58.6,39.8
		L58.6,39.8c0.1,0,0.1,0,0.2,0c0-0.1,0-0.1,0-0.1L58.6,39.8z M59.2,47.6c0.1-0.2,0.1-0.3,0.1-0.3c0,0,0,0-0.1,0.1
		c-0.1,0.1-0.2,0.1-0.3,0.2c-0.1,0.1-0.2,0.2-0.3,0.3c-0.1,0.1-0.1,0.2-0.1,0.3c0,0.1,0,0.2,0.2,0.2c0,0,0-0.1,0.1-0.2
		c0.1-0.1,0.1-0.2,0.1-0.2c0-0.1,0.1-0.1,0.1-0.2S59.2,47.6,59.2,47.6z M59,48.9c0,0-0.1,0-0.1-0.1c-0.1,0-0.1-0.1-0.1-0.1
		c0,0,0,0-0.1,0c0,0-0.1,0-0.1,0c0.1,0.1,0.2,0.1,0.2,0.2c0.1,0.1,0.1,0.1,0.2,0.2c0.1,0.1,0.1,0.1,0.2,0.2c0,0,0-0.1,0-0.2
		c0-0.1,0-0.2,0-0.2C59.2,49,59.2,48.9,59,48.9z M58.8,55.3L58.8,55.3c0-0.1-0.1-0.2-0.2-0.2C58.6,55.2,58.7,55.2,58.8,55.3z
		 M59.1,55.5c0-0.1,0-0.2-0.1-0.3c-0.1,0-0.1,0-0.1,0.1c0,0,0,0.1,0.1,0.1S59.1,55.5,59.1,55.5z M59,38.9L59,38.9
		c-0.1,0.2-0.1,0.3,0,0.2c0.1,0,0.1-0.1,0.1-0.1C59.1,38.9,59.1,38.9,59,38.9z M59.8,56.2c0,0,0-0.1,0-0.2c-0.1-0.1-0.1-0.1-0.2-0.2
		c-0.1,0-0.1-0.1-0.1-0.2c-0.2,0-0.3,0-0.3,0.1c0.1,0.1,0.2,0.3,0.4,0.5C59.7,56.3,59.8,56.3,59.8,56.2z M59.5,46.2
		c0.1,0,0.2-0.2,0.2-0.3l0,0C59.5,46,59.4,46.1,59.5,46.2z M59.5,37.8L59.5,37.8c-0.1,0.3-0.1,0.3,0.1,0.3c0,0,0-0.1,0-0.1
		L59.5,37.8z M59.6,49.7c0,0,0,0.1,0.1,0.1C59.7,49.8,59.7,49.7,59.6,49.7z M59.9,45.7c0.1-0.1,0.1-0.1,0-0.1c-0.1,0-0.1,0-0.1,0.1
		C59.7,45.7,59.8,45.8,59.9,45.7z M60.3,37C60.3,36.9,60.2,36.9,60.3,37c-0.3,0-0.5,0.2-0.5,0.4l0,0.2C59.9,37.5,60.1,37.4,60.3,37z
		 M60,50l0.1,0.2l0-0.1C60.1,50.1,60,50,60,50z M60,45.4C60,45.3,60,45.3,60,45.4c0.1-0.1,0.1-0.2,0.1-0.2s0-0.1,0-0.1
		C60,45,60,45.1,60,45.4z M60.2,45c0,0,0-0.1,0.1-0.1c0-0.1,0.1-0.1,0-0.2c-0.2,0.1-0.3,0.1-0.2,0.2L60.2,45z M60.4,51.5
		c-0.1-0.1-0.1-0.1-0.2,0.1C60.3,51.6,60.3,51.6,60.4,51.5z M60.4,56.8c0-0.1-0.1-0.2-0.3-0.2l0.1,0.1C60.3,56.9,60.4,57,60.4,56.8z
		 M60.4,45.7C60.4,45.8,60.4,45.8,60.4,45.7C60.3,45.8,60.3,45.7,60.4,45.7z M60.5,51.7c0,0,0-0.1,0-0.1c0,0,0-0.1-0.1-0.1
		C60.3,51.6,60.4,51.7,60.5,51.7z M60.5,44.4c0.2-0.3,0.4-0.7,0.6-1l-0.4,0.3c0,0-0.1,0-0.1,0.1c-0.1,0.1-0.1,0.2-0.2,0.4
		C60.4,44.3,60.4,44.4,60.5,44.4z M60.5,45.5c0-0.1,0-0.1,0.1-0.1c-0.1,0.2-0.1,0.3-0.2,0.3C60.4,45.6,60.4,45.6,60.5,45.5z
		 M60.5,50.1c0,0.1,0,0.1,0.2,0.1C60.6,50.1,60.6,50.1,60.5,50.1z M60.8,50.9l-0.2-0.2l0,0L60.8,50.9L60.8,50.9z M60.7,57.3
		C60.7,57.3,60.7,57.3,60.7,57.3C60.7,57.3,60.7,57.3,60.7,57.3C60.7,57.3,60.7,57.3,60.7,57.3z M61,52.3
		C61.1,52.4,61.1,52.4,61,52.3C61.1,52.3,61.1,52.3,61,52.3c0.1-0.1,0.1-0.2,0-0.2c0,0-0.1-0.1-0.1,0c0,0,0,0,0,0.1
		C61,52.3,61,52.3,61,52.3z M61.4,51.4c0-0.1-0.1-0.2-0.3-0.2L61.4,51.4L61.4,51.4z M61.6,42.3l-0.3,0.2l0,0c-0.1,0,0,0.1,0,0.1
		C61.4,42.6,61.5,42.5,61.6,42.3z M61.6,50.7l-0.3-0.2l0,0C61.3,50.5,61.4,50.5,61.6,50.7z M61.5,52.6
		C61.5,52.6,61.5,52.6,61.5,52.6c-0.2,0-0.2,0.1-0.1,0.1c0,0,0.1,0,0.1,0l0.1-0.1C61.6,52.6,61.6,52.6,61.5,52.6z M61.6,52.9
		C61.6,52.8,61.6,52.8,61.6,52.9C61.6,52.8,61.6,52.9,61.6,52.9z M61.8,53.2C61.9,53.2,61.9,53.2,61.8,53.2c0.1-0.2,0-0.3-0.1-0.2
		C61.7,53,61.7,53.1,61.8,53.2z M62,58.8C61.9,58.8,61.9,58.8,62,58.8C62,58.7,62,58.7,62,58.8z M62,52c-0.1,0.1,0,0.2,0.1,0.1
		C62.2,52,62.2,52,62,52z M62.1,53.2L62.1,53.2c0,0,0,0-0.1,0.1c0,0,0,0,0,0C62.1,53.3,62,53.3,62.1,53.2L62.1,53.2z M62.1,32.3
		l0.2-0.1c0.1-0.1,0.1-0.2,0-0.3C62.3,32,62.2,32.1,62.1,32.3C62.2,32.2,62.1,32.3,62.1,32.3z M62.1,52.2c0,0,0.1,0,0.1-0.1l0,0
		C62.1,52.1,62.1,52.1,62.1,52.2z M62.7,53.8c0-0.1,0-0.2-0.2-0.3c-0.2-0.1-0.2-0.2-0.2-0.2c-0.1-0.1-0.1-0.1-0.1,0.1
		C62.4,53.7,62.5,53.8,62.7,53.8z M62.3,41.2c0,0,0,0.1-0.1,0.2C62.2,41.4,62.2,41.3,62.3,41.2z M62.4,31.8
		C62.4,31.8,62.4,31.8,62.4,31.8c0.1,0.1,0.1,0,0.2-0.1c0,0,0-0.1,0-0.1C62.6,31.6,62.5,31.6,62.4,31.8
		C62.5,31.7,62.5,31.7,62.4,31.8z M63.1,54.1L63.1,54.1C63,54.2,63,54.2,63,54.2L63.1,54.1z M63.1,30.4
		C63.2,30.4,63.2,30.5,63.1,30.4c0,0.1,0,0.1,0,0.2l0,0L63.1,30.4L63.1,30.4z M63.4,54.5c0.1-0.1,0.1-0.1-0.1-0.2c0,0-0.1,0-0.1,0
		c0,0,0,0.1,0.1,0.1C63.3,54.5,63.3,54.5,63.4,54.5z M63.3,32.7c0-0.1,0.1-0.1,0.1-0.3C63.3,32.5,63.2,32.5,63.3,32.7z M63.6,53.3
		l-0.2-0.1C63.4,53.4,63.5,53.4,63.6,53.3C63.5,53.4,63.6,53.4,63.6,53.3z M63.4,39.4C63.5,39.4,63.5,39.5,63.4,39.4
		C63.4,39.4,63.4,39.4,63.4,39.4z M63.4,54.7c0.1,0,0.1-0.1,0.1-0.2c0,0,0,0,0-0.1C63.4,54.5,63.4,54.5,63.4,54.7
		C63.4,54.7,63.4,54.7,63.4,54.7z M63.7,32.1c0.1-0.1,0.1-0.1,0-0.2c-0.1,0-0.2,0-0.2,0.1L63.7,32.1L63.7,32.1z M63.8,38.8
		c0,0,0.1-0.1,0.1-0.1L63.8,38.8z M64,54.9c-0.1-0.1-0.1-0.1-0.1,0l0,0C63.9,55.1,64,55.1,64,54.9z M64.1,31.2
		c0.2-0.1,0.3-0.2,0.5-0.5c0.1-0.2,0.3-0.5,0.4-0.9c0.1-0.4,0.2-0.7,0.3-0.8C64.5,30.1,64.1,30.8,64.1,31.2z M64.4,53.6l0.3,0.2
		l0.2,0.2L64.4,53.6L64.4,53.6z M64.6,28c0,0-0.1,0.2-0.2,0.5L64.6,28L64.6,28z M64.9,54.1C65,54.1,65,54.1,64.9,54.1
		C65,54.2,64.9,54.2,64.9,54.1z M65.2,29.6c0.1-0.1,0.2-0.3,0.4-0.6c-0.2,0.2-0.3,0.3-0.3,0.4C65.2,29.5,65.2,29.5,65.2,29.6z
		 M65.6,54.7l-0.2-0.1c-0.1,0-0.1-0.1-0.1-0.1c0,0,0.1,0,0.1,0C65.4,54.5,65.5,54.5,65.6,54.7C65.5,54.6,65.5,54.6,65.6,54.7z
		 M65.8,28.6l-0.1,0.2l0.1-0.1C65.9,28.7,65.9,28.6,65.8,28.6z M66.1,28.2c0,0.1-0.1,0.1-0.1,0.1C66,28.2,66.1,28.1,66.1,28.2z
		 M66.2,27.9l0.1-0.2l0,0L66.2,27.9z M67.7,59.1C67.6,59,67.6,59,67.5,59C67.5,59.1,67.6,59.1,67.7,59.1z M68,58
		c0.1-0.1,0-0.1-0.2-0.2c0,0,0,0.1,0.1,0.1C68,57.9,68,58,68,58z M68.2,58.1c0,0,0-0.1-0.1-0.1c-0.1,0.1,0,0.1,0,0.1
		C68.2,58.1,68.2,58.1,68.2,58.1z M68.6,27.6C68.7,27.6,68.7,27.6,68.6,27.6C68.6,27.5,68.6,27.5,68.6,27.6z M69.4,60.6
		c-0.1-0.1-0.1-0.1-0.1-0.2c0,0-0.1-0.1-0.1-0.1c0,0-0.1,0-0.1,0c0,0,0.1,0.1,0.1,0.1c0,0,0,0,0,0c0,0,0,0,0.1,0.1
		C69.2,60.5,69.3,60.6,69.4,60.6z M69.5,60.7l0.1,0L69.5,60.7z M69.9,63.2C69.9,63.3,69.9,63.3,69.9,63.2
		C69.9,63.2,69.9,63.2,69.9,63.2z M70.1,61.1c-0.1,0,0,0,0.1,0.1C70.2,61.1,70.1,61.1,70.1,61.1z M70.1,59.4c0.1,0,0.2,0,0.3,0.2
		c0,0,0,0-0.1-0.1C70.2,59.5,70.2,59.5,70.1,59.4C70.1,59.5,70.1,59.5,70.1,59.4z M70.5,22.6c0.1,0,0.2-0.1,0.2-0.2
		C70.5,22.4,70.4,22.5,70.5,22.6z M70.8,22c0,0,0.1-0.1,0.2-0.3s0.1-0.3,0.1-0.4c0,0-0.1,0.1-0.2,0.3s-0.2,0.3-0.3,0.4
		c-0.1,0.1-0.1,0.2,0,0.2c0,0,0.1,0,0.1,0C70.8,22.2,70.8,22.1,70.8,22C70.8,22,70.8,22,70.8,22z M71,23.2L71,23.2
		c0.1-0.2,0.1-0.3,0.2-0.3L71,23.2z M71.6,22.2c0,0.3-0.1,0.5-0.4,0.5c0.1-0.3,0.2-0.4,0.2-0.5L71.6,22.2z M71.6,23.9
		c0,0.1-0.1,0.1-0.1,0.2C71.6,24,71.6,24,71.6,23.9z M72.3,22.9c0-0.1-0.1,0-0.2,0.2c-0.1,0.2-0.2,0.3-0.3,0.5
		c0.1-0.1,0.2-0.2,0.2-0.2c0.1,0,0.1-0.1,0.2-0.2c0.1-0.1,0.1-0.1,0.1-0.2C72.3,23,72.3,22.9,72.3,22.9z M72.1,21.3L72.1,21.3
		L72.1,21.3z M72.3,65.7C72.3,65.7,72.2,65.7,72.3,65.7c0,0.1,0.2,0.2,0.3,0.3C72.7,65.9,72.6,65.8,72.3,65.7z M72.3,22.7L72.3,22.7
		c0.2-0.2,0.3-0.3,0.3-0.4c0,0-0.1,0-0.1,0c0,0-0.1,0.1-0.1,0.1c0,0,0,0.1,0,0.2C72.3,22.6,72.3,22.7,72.3,22.7z M72.3,18.3
		c0-0.1,0.1-0.2,0.1-0.2C72.4,18.2,72.4,18.2,72.3,18.3z M72.4,18.6c0-0.2,0.1-0.3,0.2-0.2C72.6,18.5,72.6,18.5,72.4,18.6z
		 M72.7,64.9c0,0.1,0.1,0.1,0.2,0.2c0-0.1,0-0.1-0.1-0.1C72.8,64.9,72.7,64.9,72.7,64.9z M72.7,66L72.7,66c0,0.1,0.1,0.1,0.3,0.2
		c0,0,0,0-0.1-0.1c0,0-0.1-0.1-0.1-0.1C72.8,66,72.8,66,72.7,66z M73,21.6c0,0,0,0.1-0.1,0.1C72.9,21.7,72.9,21.6,73,21.6z
		 M72.9,21.2c0,0,0-0.1,0.1-0.2c0.1-0.1,0.1-0.2,0.2-0.2L72.9,21.2L72.9,21.2z M73.3,65.4c-0.1,0-0.1-0.1-0.2-0.1
		C73.1,65.3,73.2,65.3,73.3,65.4z M73.3,66.5C73.3,66.5,73.3,66.5,73.3,66.5C73.3,66.4,73.3,66.4,73.3,66.5z M73.6,66.3
		c-0.1,0-0.2,0-0.3-0.1C73.5,66.3,73.5,66.3,73.6,66.3z M73.3,64.4c0,0.1,0,0.2,0.2,0.2c0-0.1,0-0.1,0-0.1
		C73.4,64.4,73.4,64.4,73.3,64.4z M74.1,64.9c0-0.1,0-0.1-0.1-0.2c-0.1-0.1-0.2-0.1-0.4-0.2c0,0,0.1,0,0.1,0.1
		c0,0.1,0.1,0.1,0.2,0.2C74,64.8,74,64.9,74.1,64.9z M73.8,66.5L73.8,66.5C73.8,66.5,73.8,66.5,73.8,66.5z M73.8,66.5
		c0.1,0,0.1,0,0.2,0.1L73.8,66.5L73.8,66.5z M73.8,65.8L73.8,65.8L73.8,65.8z M76,66.1l-0.2,0c-0.1-0.1-0.1-0.1,0-0.1
		C75.9,66,76,66,76,66.1z M75.8,65L75.8,65L75.8,65z M76.3,66L76.3,66C76.3,66,76.3,66,76.3,66z"/>
</g>
</svg>
